<svg width="217" height="204" viewBox="0 0 217 204" fill="none" xmlns="http://www.w3.org/2000/svg">
<path d="M32.352 69.5853L32.7547 69.6095L32.352 69.5853Z" fill="white"/>
<path d="M210.892 165.77C207.599 166.896 200.186 165.722 192.668 165.972C192.811 165.861 192.963 165.763 193.123 165.678C199.565 162.255 198.303 159.569 195.011 161.248C192.638 162.456 191.601 164.786 191.313 165.601C191.347 165.466 191.391 165.281 191.446 165.037C193.493 155.516 184.522 156.38 189.432 164.395C189.823 165.033 189.982 165.762 190.238 166.078C186.777 166.127 186.179 164.754 182.15 166.779C181.747 166.086 181.228 165.043 180.674 163.988L183.42 162.537C183.674 162.003 181.355 157.266 177.773 150.562C177.773 150.562 174.65 144.856 170.324 137.173H183.491V132.077H167.445C160.934 120.601 152.931 106.894 148.421 100.613C146.192 97.5062 141.412 96.2398 133.16 96.2539C126.586 96.268 112.881 96.3365 99.1343 96.4371C95.7116 88.3838 91.8581 78.7399 91.6467 78.2104L92.2245 78.442V78.4158C92.5567 78.6171 93.3701 79.058 96.8552 80.1956C133.391 92.1346 118.74 63.948 100.983 52.9652C94.1875 48.7634 80.1385 36.5787 70.5329 36.8888V35.6304C70.5307 35.3503 70.4177 35.0824 70.2184 34.8854C70.0192 34.6884 69.75 34.5784 69.4698 34.5795L64.0097 34.6077C63.9996 33.8587 63.8868 33.146 63.8627 32.4333C63.8285 31.4266 63.7801 30.2428 64.8231 29.3045C67.2169 27.1503 68.6484 24.9034 68.2457 20.8687C67.8833 17.2769 65.8136 12.1852 64.8915 7.80617L65.0465 7.74577L64.8814 7.75785C64.8653 7.68537 64.8472 7.61088 64.8331 7.54041C62.707 -3.04167 43.6931 -1.6565 46.1272 10.9631C46.1776 11.2188 46.3648 12.5033 46.6447 14.2166C46.485 14.3375 46.3508 14.4885 46.2496 14.6613C46.1483 14.834 46.0821 15.025 46.0548 15.2233L46.7655 14.9434C47.1218 17.0776 47.599 19.6889 48.1204 21.8129C48.5352 23.5061 49.6486 25.3282 50.0935 25.906C51.7686 28.0804 51.8753 32.248 52.0122 34.6721L45.9923 34.7023C45.7122 34.7044 45.4443 34.8175 45.2473 35.0167C45.0503 35.216 44.9403 35.4852 44.9414 35.7653V35.8761C39.1611 34.7244 33.1896 39.2987 27.2059 44.3864C23.2417 47.7567 17.854 51.5559 15.5789 53.6256C6.2894 62.0816 -4.86849 74.5824 4.50559 81.8485C8.88056 85.241 15.0977 86.7711 21.5646 87.4577C31.5789 87.5704 45.7004 87.7556 45.7004 87.7556L48.4365 99.5981C48.4365 99.5981 46.091 125.785 71.6865 132.077H1.72114V137.175H115.301C117.538 151.425 117.802 167.129 117.802 181.67C117.802 181.71 118.978 181.623 120.78 181.468C120.745 182.374 120.717 183.389 120.719 184.265C119.511 184.331 118.456 184.4 118.462 184.454C118.664 186.425 117.969 202.471 119.111 202.681C120.923 203.013 129.358 203.609 130.087 202.258C130.234 201.986 130.756 198.288 131.799 197.506C132.125 197.261 132.503 197.305 132.938 197.827C133.309 198.274 133.719 200.462 134.174 201.585C135.493 204.853 157.509 202.717 161.342 202.701C162.331 202.701 165.6 198.71 159.508 196.643C155.28 195.205 152.318 194.199 150.116 193.319L145.904 191.889C144.135 191.287 142.597 190.15 141.504 188.635C140.411 187.12 139.816 185.302 139.802 183.433L139.399 137.165H140.194L165.319 169.803C166.182 170.81 166.682 171.387 166.682 171.387L168.872 170.23C169.726 171.349 170.664 172.694 171.357 173.652C170.859 173.977 170.519 174.212 170.551 174.238C171.842 175.767 180.417 189.268 181.462 188.926C183.129 188.382 190.32 185.07 190.153 183.631C190.097 183.174 186.509 176.103 192.487 180.359C195.422 182.449 212.727 171.649 215.841 169.906C216.636 169.473 216.667 163.797 210.892 165.77ZM42.314 69.7866H42.2677H42.2093H42.1388H42.0905C41.9093 69.7725 41.6878 69.7584 41.4241 69.7444H41.1885C40.4033 69.7121 39.3624 69.692 38.2289 69.6799H38.1262H37.3632H37.0048H35.8955H34.9995H34.46H33.6244H32.3943H31.3413H31.0091C30.7393 69.6799 30.5199 69.6799 30.3648 69.6678C30.1796 69.6678 30.081 69.6538 30.093 69.6437L30.1454 69.5994C30.9809 69.6155 31.7299 69.6356 32.348 69.6678L30.2159 69.543C32.1386 67.9867 40.8865 62.45 40.9046 61.228L42.6059 69.9316C42.5206 69.8621 42.4209 69.8126 42.314 69.7866V69.7866ZM113.087 124.497C113.274 126.283 113.691 128.524 114.264 131.37C114.313 131.604 114.357 131.842 114.403 132.077H87.5173C95.8968 130.656 104.798 127.61 113.087 124.497ZM191.917 166H192.034H191.917Z" fill="white"/>
<path d="M167.763 87.504L168.165 81.319C169.47 81.8888 170.936 82.4545 172.595 83.0203C176.96 84.5081 184.473 86.2738 185.319 86.5678C189.565 88.0476 183.547 80.2459 182.076 76.8172C179.601 71.049 170.426 59.8428 169.605 51.6304C168.854 44.1328 159.792 42.812 158.419 49.601C157.01 50.7949 155.258 52.774 156.422 52.774C156.824 52.774 157.545 52.7981 158.32 52.774C158.32 52.8022 158.32 52.8283 158.32 52.8545C159.838 66.1425 154.763 73.2194 164.05 79.1708C164.251 82.3357 164.733 87.4456 164.733 87.4456L164.115 79.2111C165.402 80.0114 166.748 80.7127 168.141 81.3089C167.974 83.3323 167.912 84.9954 167.787 87.1798L167.763 87.504Z" fill="white"/>
<path d="M183.553 199.008H184.379V188.171C184.093 188.306 183.817 188.43 183.553 188.549V199.008Z" fill="black"/>
<path d="M89.7622 132.077C89.0105 132.226 88.2636 132.364 87.5214 132.49C86.5818 132.648 85.6469 132.783 84.7168 132.893H114.136C114.109 132.754 114.081 132.617 114.055 132.49C114.029 132.363 114.001 132.214 113.973 132.077H89.7622Z" fill="black"/>
<path d="M134.957 180.681L134.541 180.713L134.138 180.746C131.452 180.947 128.136 181.247 125.199 181.503L121.172 181.853L120.77 181.887L120.367 181.921C120.345 182.566 120.327 183.24 120.325 183.876L120.727 183.852L121.13 183.83L122.185 183.776C123.045 183.731 123.856 183.691 124.071 183.667C126.133 183.451 129.33 183.304 131.666 183.2C132.554 183.16 133.321 183.123 133.81 183.095L134.245 183.069L134.658 183.051L135.06 183.035C135.06 182.96 135.06 182.888 135.06 182.809C135.048 182.513 135.034 182.183 135.02 181.819C134.998 181.404 134.98 181.027 134.957 180.681Z" fill="black"/>
<path d="M173.223 172C173.897 171.575 174.534 171.174 174.695 171.059C177.755 168.879 179.929 167.484 181.596 166.61L181.963 166.421C182.09 166.356 182.212 166.298 182.333 166.239C182.1 165.811 181.83 165.291 181.552 164.756L181.244 164.164L180.88 164.365L180.513 164.566L169.5 170.393L169.13 170.594L168.761 170.796C169.365 171.587 169.969 172.463 170.509 173.212L170.777 173.588C170.875 173.522 170.978 173.445 171.121 173.361L171.469 173.135C171.896 172.833 172.466 172.467 173.223 172Z" fill="black"/>
<path d="M120.788 181.054L121.19 181.019L125.11 180.681C128.048 180.423 131.352 180.135 134.056 179.924L134.458 179.894L134.877 179.862C136.713 179.723 138.179 179.632 138.904 179.63C139.626 177.456 139.357 157.196 139.175 143.684C139.145 141.365 139.115 139.172 139.091 137.175C139.091 137.036 139.091 136.897 139.091 136.762C139.091 136.627 139.091 136.486 139.091 136.36V136.158C139.091 135.713 139.086 135.279 139.077 134.858C139.061 134.215 139.032 133.565 138.99 132.913L138.96 132.51C138.96 132.373 138.94 132.234 138.928 132.097C138.479 126.72 137.049 121.366 134.096 119.413C132.713 118.501 131.076 118.445 129.219 119.244L129.171 119.264H129.119C127.589 119.498 123.337 121.02 121.518 121.721L119.795 122.383C117.764 123.168 115.664 123.978 113.52 124.785C113.721 126.486 114.111 128.61 114.659 131.302C114.713 131.564 114.764 131.828 114.814 132.091C114.842 132.228 114.868 132.365 114.897 132.504L114.975 132.907C115.193 134.044 115.392 135.194 115.579 136.353L115.646 136.756L115.712 137.169C117.971 151.584 118.201 167.315 118.205 181.247C118.637 181.223 119.413 181.162 120.377 181.082L120.788 181.054Z" fill="black"/>
<path d="M180.131 163.819L180.497 163.618L180.86 163.427L183.028 162.279C182.911 161.829 182.754 161.389 182.559 160.966C182.458 160.731 182.339 160.457 182.196 160.141C181.031 157.572 178.311 152.184 172.043 140.9C171.367 139.68 170.67 138.431 169.961 137.167L169.73 136.754L169.498 136.351C168.859 135.213 168.212 134.064 167.555 132.905L167.322 132.502L167.088 132.089C162.218 123.494 157.034 114.559 152.906 107.678C152.693 107.319 152.482 106.963 152.274 106.609C151.191 104.772 150.158 103.023 148.733 101.517C148.499 101.269 148.252 101.028 147.994 100.794C145.274 98.3277 141.149 96.6787 133.297 96.6787H133.188C126.578 96.6928 113.242 96.7593 99.7846 96.8559H99.3356H98.8866C92.4178 96.9022 85.955 96.9586 80.2331 97.019L80.2573 96.6163L80.2693 96.415H80.0902L80.0237 96.2137C79.6211 95.0218 79.16 93.7312 78.6848 92.3722C76.8728 87.1939 74.8132 81.3251 73.6515 77.093C73.3978 76.1729 72.4274 73.4187 71.3865 70.5195L91.3427 78.5265C91.9306 79.9983 95.3693 88.5751 98.5242 96.0284H98.9732H99.4222C96.5814 89.3502 93.4748 81.6331 92.4138 78.9856C92.9614 79.2574 94.0889 79.7265 96.7465 80.5962C112.682 85.8047 117.812 83.0505 119.31 79.8231C120.745 76.7326 119.372 71.7899 115.545 66.2593C111.941 61.0347 106.576 55.9349 101.208 52.6129C99.6457 51.6485 97.7189 50.2734 95.4881 48.6809C90.8273 45.3528 85.0289 41.2134 79.5164 38.7169C76.2225 37.223 73.3797 36.472 70.9516 36.4579V35.6284C70.949 35.2402 70.793 34.8687 70.5177 34.595C70.2425 34.3212 69.8701 34.1673 69.4819 34.1668L64.4224 34.1929C64.4063 33.9111 64.3821 33.6372 64.358 33.3695C64.3278 33.0413 64.2996 32.7312 64.2895 32.4192V32.399C64.2553 31.4246 64.219 30.4159 65.113 29.6106C67.5592 27.412 69.0974 25.0766 68.6665 20.8264C68.4652 18.7285 67.69 16.1957 66.8807 13.512C66.3391 11.7141 65.7814 9.8618 65.3908 8.1263C65.274 8.1404 65.1371 8.15449 64.9881 8.16657C64.8633 8.16657 64.7244 8.18267 64.5694 8.18871C64.1889 8.20281 63.7137 8.20885 63.1198 8.20684H62.2017C60.1461 8.20684 55.8657 8.18067 54.7342 8.40817C54.6034 8.43435 54.4544 8.45448 54.2812 8.47663C52.7813 8.67796 51.4626 9.0464 51.6518 11.3396C51.7626 12.616 51.6035 13.3952 51.1364 13.8683C50.5485 14.4723 49.6465 14.3938 48.6016 14.3153C48.4305 14.3032 48.2553 14.2891 48.0741 14.279C47.7485 14.2483 47.4202 14.2974 47.1178 14.422C46.9751 14.4886 46.8482 14.5846 46.7453 14.7039C46.6058 14.8733 46.514 15.077 46.4796 15.2938L46.4252 15.2837C46.7775 17.3715 47.2305 19.8661 47.7379 21.9096C48.1708 23.6692 49.3043 25.5336 49.7875 26.1557C51.2693 28.0805 51.4626 31.7447 51.5995 34.1688C51.5995 34.201 51.5995 34.2292 51.5995 34.2594L46.0145 34.2876C45.6916 34.2911 45.3788 34.4006 45.1242 34.5992C44.8695 34.7978 44.6872 35.0745 44.6052 35.3868C38.8833 34.5251 32.9822 38.9545 26.9663 44.0703C24.9812 45.7575 22.6014 47.5816 20.5015 49.1903C18.3412 50.8472 16.4749 52.2767 15.3293 53.3196C5.14583 62.5507 0.321885 69.7866 0.541338 75.4481C0.646032 78.0916 1.88826 80.3546 4.23581 82.1747C7.58801 84.7779 12.0173 86.296 16.8091 87.1839C12.42 87.6308 8.09939 89.0744 5.39146 92.336C1.9406 96.4794 1.56612 108.978 0.962124 129.685C0.857431 133.295 0.746699 137.026 0.611806 141.041V199.025H1.43727V160.975H38.1464V199.008H38.9718V141.024C38.9718 140.163 38.9718 138.838 38.9416 137.167H114.877C114.856 137.028 114.832 136.891 114.81 136.754C114.788 136.617 114.768 136.478 114.746 136.351H38.9296C38.9155 135.307 38.8953 134.151 38.8692 132.905H72.8522C72.3992 132.832 71.9502 132.752 71.5073 132.659C71.2496 132.605 70.9959 132.55 70.7443 132.492C70.198 132.364 69.6611 132.227 69.1336 132.079H38.851C38.7363 126.845 38.5209 120.211 38.1363 113.758C36.9968 94.601 35.2673 91.0575 33.9949 90.383C33.5358 89.5294 31.6272 88.8247 30.0971 88.3818C32.5896 88.4382 35.0036 88.4341 37.2404 88.4301C40.6147 88.4301 43.5502 88.418 45.8514 88.6073L47.6533 97.782L47.8547 97.7096C47.9167 97.6891 47.9799 97.6723 48.0439 97.6592C48.1365 97.6371 48.2674 97.6089 48.4466 97.5747L46.7051 88.6757L41.4623 61.8461C41.4442 61.685 41.3556 61.2421 40.9751 59.3556L40.5342 57.1026V57.1771C40.208 55.5524 39.8879 53.9095 39.8859 53.6578H39.0604C39.0604 54.0605 39.5034 56.2752 40.1275 59.3334C40.2604 59.9797 40.3933 60.6381 40.4919 61.1313C40.2765 61.9367 35.6438 65.1338 33.1493 66.8613C31.7983 67.7975 30.6125 68.6169 30.0024 69.1041L28.1904 69.0759C24.2061 69.0236 19.2472 68.9572 17.3708 68.3069L17.099 69.088C19.1023 69.7806 24.1356 69.8491 28.1723 69.9034C28.7622 69.9034 29.326 69.9175 29.8575 69.9276C30.0105 70.0021 30.3306 70.0061 31.146 70.0142C31.8024 70.0142 32.7124 70.0242 33.7372 70.0282C36.572 70.0282 41.1865 70.0524 42.2435 70.1873L45.6783 87.7536C43.381 87.5805 40.512 87.5865 37.2223 87.5926C33.4171 87.5926 29.0964 87.6046 24.7597 87.3107C23.8356 87.1979 22.8632 87.1094 21.8625 87.0651C15.3635 86.3987 9.0819 84.8967 4.72907 81.5204C2.58286 79.8573 1.44734 77.8017 1.35271 75.4119C1.15138 70.0866 6.01559 62.8588 15.8306 53.9296C16.95 52.9109 18.8043 51.4915 20.9505 49.8466C23.0585 48.2359 25.4463 46.4018 27.4455 44.7005C30.8561 41.8013 34.8103 38.58 38.5954 37.0498C40.7053 36.2042 42.6643 35.9264 44.5045 36.2183L44.5669 47.9078C44.5696 48.296 44.7255 48.6675 45.0008 48.9412C45.2761 49.215 45.6484 49.3689 46.0366 49.3694V49.3694L55.9946 49.3171L55.9261 49.2889L56.0751 48.9044L56.2221 48.5178C56.4576 48.6084 56.6872 48.7191 56.9147 48.8218L57.0717 48.8983L57.3556 49.0473C57.5106 49.1298 57.6656 49.2144 57.8187 49.303L58.4005 49.6392C59.7877 50.4446 61.2192 51.2902 63.16 51.2902V52.1156C60.9977 52.1156 59.3971 51.1794 57.9838 50.354C57.6636 50.1667 57.3516 49.9855 57.0415 49.8164C56.9187 49.75 56.7959 49.6855 56.6711 49.6151C56.5462 49.5446 56.4234 49.4943 56.2986 49.4379C56.2505 49.5195 56.2094 49.605 56.1758 49.6936C55.8436 50.5875 56.2422 51.7593 57.3838 53.2652C57.565 53.3357 57.7864 53.4243 58.0542 53.535L58.1186 53.5612L58.5696 53.7444C60.434 54.4994 63.452 55.6289 66.3834 55.6289H66.8142V56.4544H66.3834C63.7057 56.4544 61.0038 55.5765 59.081 54.8437C58.783 54.7289 58.5052 54.6182 58.2475 54.5135L57.7401 54.3122L57.6475 54.2739C57.7462 54.6001 58.0643 55.0007 58.6683 55.6047C58.6864 55.651 58.7146 55.7356 58.7367 55.8061C59.079 56.8409 60.1199 59.9878 65.6203 61.4615C67.1303 61.8642 73.8508 63.9017 75.0306 64.5117L70.8308 69.0719C70.4121 67.9102 69.9973 66.7687 69.6228 65.7559C69.7215 65.5546 69.5947 65.309 69.4034 65.1519C68.9041 63.7748 68.5014 62.6655 68.4652 62.5346L68.0625 62.6353L67.6598 62.6735C67.6598 62.7601 67.6598 62.7762 68.6343 65.4338C68.4954 65.762 68.6645 66.0741 68.8356 66.066H68.8598C69.2625 67.1512 69.7215 68.4417 70.1966 69.7605L70.0154 69.9618L70.3094 70.0806C71.4207 73.167 72.5402 76.3219 72.8039 77.2843C73.9736 81.5445 76.0353 87.4275 77.8533 92.6199C78.2963 93.8782 78.7171 95.0801 79.1036 96.1955C79.1499 96.3345 79.1982 96.4714 79.2445 96.5982C79.2909 96.725 79.3392 96.872 79.3855 97.0009C70.5449 97.0955 63.5949 97.2022 61.3521 97.3089C52.8055 97.7116 49.6304 98.1605 48.5614 98.3599L48.36 98.4001C48.36 98.7827 48.36 99.1753 48.3781 99.5759C48.4023 100.514 48.4526 101.501 48.5332 102.521C49.4029 113.393 53.947 128.157 71.6301 131.826C72.0328 131.912 72.4576 131.987 72.8784 132.055C74.5358 132.315 76.21 132.453 77.8876 132.468H78.8761C80.799 132.438 82.7188 132.3 84.6262 132.055C93.6721 130.915 103.521 127.6 112.593 124.203L112.996 124.054L113.399 123.905C115.468 123.124 117.498 122.341 119.463 121.584L121.184 120.919C122.638 120.36 127.142 118.715 128.905 118.427C129.767 118.043 130.698 117.837 131.642 117.823C132.679 117.817 133.694 118.126 134.551 118.711C136.838 120.221 138.273 123.527 139.081 127.336C139.23 128.046 139.359 128.773 139.467 129.51C139.592 130.362 139.689 131.224 139.761 132.085C139.761 132.222 139.783 132.361 139.794 132.498L139.824 132.901C139.866 133.559 139.894 134.213 139.91 134.86C139.92 135.28 139.924 135.696 139.924 136.11V136.136C139.927 136.204 139.936 136.271 139.951 136.337C139.982 136.475 140.024 136.609 140.077 136.74C140.126 136.865 140.186 137.004 140.257 137.153C141.042 138.8 143.162 141.836 146.013 145.583C146.281 145.935 146.556 146.295 146.838 146.66C149.955 150.709 153.802 155.456 157.688 160.127C157.918 160.403 158.145 160.679 158.375 160.952C161.278 164.431 164.177 167.842 166.784 170.858L168.252 170.081L168.622 169.88L168.993 169.678L180.131 163.819ZM88.1616 75.9756V76.028C88.1028 76.1104 88.0623 76.2044 88.0428 76.3038L75.4655 71.2483C75.8682 70.9604 76.4863 70.3041 77.7486 68.9209C78.4734 68.1156 79.2929 67.2257 79.5808 67.0284C81.6304 65.619 83.7967 62.7279 85.5382 60.4065C86.5751 59.0234 87.5516 57.7127 88.1757 57.1973C91.6366 58.9126 96.2733 61.075 97.3907 61.2642C97.3907 61.4816 97.5176 61.6467 97.6444 61.6407C99.4363 61.5642 97.7934 59.9555 97.5236 60.8011L97.5035 60.4549C96.5773 60.4045 86.4503 55.5806 84.7691 54.4853L84.4772 54.2961L83.4705 55.3812L83.3598 55.2182C83.2551 55.0591 83.1041 55.0168 82.8947 54.9746C80.4505 54.4088 78.0547 52.0693 75.7635 48.0286C75.6427 47.8151 75.3387 47.0118 75.0165 46.1642C74.3119 44.3079 73.4341 41.9966 72.8019 41.1832C72.3992 40.6477 71.9764 40.3779 71.5355 40.3336C71.338 40.3189 71.14 40.3543 70.9597 40.4363L70.9416 37.3055C76.289 37.3337 83.0397 41.1671 89.0354 45.1898C89.0054 45.2311 88.9829 45.2775 88.969 45.3267V45.383C88.7032 45.7575 88.8945 46.1662 89.0958 46.1562C89.6354 46.134 89.8609 45.9709 89.9011 45.7797C91.697 47.0018 93.4124 48.2279 94.9888 49.3513C97.2317 50.962 99.1685 52.3351 100.755 53.3156C106.038 56.5812 111.311 61.5924 114.86 66.7203C118.523 72.0013 119.876 76.6501 118.567 79.4668C116.648 83.6001 108.992 83.7189 97.0082 79.803C93.2896 78.595 92.6654 78.1923 92.3997 78.0212C92.1997 77.8845 91.9683 77.8007 91.7272 77.7776H91.6809L88.9146 76.6642C89.5709 76.2595 88.3791 75.2508 88.1616 75.9756ZM38.1464 141.032V160.149H1.43928V141.047C1.48358 139.728 1.52586 138.441 1.56612 137.175H38.1162C38.1363 138.844 38.1464 140.171 38.1464 141.032ZM38.1041 136.349H1.74934V132.903H38.0437C38.0699 134.149 38.09 135.305 38.1041 136.349ZM28.4401 88.7885C31.901 89.5938 33.2137 90.4918 33.2822 90.7756L33.3325 90.9971L33.5499 91.0716C34.2929 91.3293 36.1471 94.0594 37.3189 113.798C37.7034 120.241 37.9229 126.857 38.0336 132.077H1.72115C1.74397 131.272 1.76679 130.48 1.78961 129.701C2.37347 109.878 2.75802 96.7814 6.01761 92.8574C9.56711 88.5932 16.1286 87.6228 21.7901 87.8905C22.7511 87.9899 23.7141 88.0717 24.6792 88.1362C25.9408 88.2869 27.1936 88.5046 28.432 88.7885H28.4401ZM33.7573 69.2048H32.7829C32.3802 69.1766 31.8889 69.1565 31.3494 69.1404C31.9534 68.6994 32.7587 68.1478 33.6285 67.5458C37.4437 64.9043 39.6966 63.2715 40.6993 62.2165L42.0945 69.3538C41.1181 69.2612 38.9296 69.2209 33.7493 69.2048H33.7573ZM46.0648 48.556C45.8941 48.5566 45.7301 48.4896 45.6087 48.3696C45.4872 48.2497 45.4181 48.0865 45.4165 47.9158L45.3561 36.4036V35.9667V35.7653C45.3564 35.6919 45.3693 35.619 45.3944 35.5499C45.4383 35.4244 45.5199 35.3155 45.6279 35.238C45.736 35.1605 45.8654 35.1183 45.9984 35.117L51.6357 35.0889H52.0484H52.4632L63.607 35.0305H64.4305L69.4879 35.0043C69.658 35.0048 69.8209 35.0723 69.9415 35.1922C70.0621 35.312 70.1306 35.4745 70.1322 35.6445V36.4962V37.3458L70.1503 40.6879L70.0597 40.7141L70.1523 41.0946L70.1765 45.7253C70.0926 45.9452 69.9787 46.1525 69.8383 46.3414C69.4577 46.8447 68.9121 47.1004 68.1692 47.1266C66.4096 47.189 62.9708 46.1743 60.2085 45.3589C58.4951 44.8555 57.0133 44.4186 56.0348 44.2475C54.7443 44.024 54.1484 44.6502 54.0215 45.2542C53.8202 46.3152 54.7805 47.6702 56.7536 48.5057L46.0648 48.556ZM84.6302 55.3672C85.1638 55.6692 86.1684 56.1926 87.3905 56.8047C86.7281 57.453 85.8886 58.5724 84.8839 59.9133C83.1786 62.1863 81.0586 65.0151 79.1197 66.3559C78.7775 66.5915 78.1453 67.274 77.1446 68.3693C76.3675 69.2229 75.1937 70.5114 74.8998 70.6443C74.9378 70.6307 74.9784 70.6258 75.0186 70.6302L74.9843 71.0571L71.4852 69.6477L84.6302 55.3672ZM54.1423 7.66122C54.2993 7.63908 54.4363 7.62096 54.545 7.60082C55.753 7.35318 59.9367 7.36929 62.1815 7.37936H63.0976C63.6271 7.37936 64.0399 7.37936 64.366 7.36526C64.5271 7.36526 64.666 7.3552 64.7868 7.34916C64.962 7.33909 65.0969 7.32701 65.2015 7.31493C63.9694 1.62726 58.016 -0.738401 52.9202 0.268266C48.7949 1.0736 44.432 4.39157 45.7185 11.0396C45.7407 11.1483 45.793 11.4886 45.8655 11.9617C45.948 12.4912 46.0668 13.216 46.1977 14.0536C46.3087 13.9436 46.4331 13.8482 46.5682 13.7697C46.6923 13.6975 46.8231 13.6375 46.9587 13.5905C47.327 13.4722 47.7145 13.4257 48.1003 13.4536L48.6399 13.4918C49.5157 13.5583 50.2062 13.6106 50.5244 13.2905C50.7962 13.0167 50.8908 12.3845 50.8042 11.4141C50.5143 8.14241 53.0551 7.80417 54.1423 7.66122Z" fill="black"/>
<path d="M66.78 38.286C66.8758 38.3796 66.9921 38.4495 67.1197 38.4904C67.2472 38.5313 67.3825 38.542 67.5149 38.5216C67.7353 38.5006 67.9404 38.3997 68.0917 38.2381C68.2429 38.0764 68.3299 37.8651 68.3363 37.6438C68.3363 37.6337 68.3363 37.6256 68.3363 37.6176C68.3263 37.4837 68.2773 37.3556 68.1954 37.2492C68.0772 37.0976 67.9086 36.9933 67.7202 36.9552C67.5288 36.918 67.3306 36.9389 67.1512 37.0154C66.9718 37.0918 66.8193 37.2202 66.7136 37.384C66.6243 37.5221 66.5813 37.685 66.5908 37.8491C66.5908 37.8733 66.6008 37.8934 66.6048 37.9176C66.6252 38.0551 66.6862 38.1834 66.78 38.286V38.286Z" fill="black"/>
<path d="M211.025 166.161C208.982 166.86 205.473 166.707 201.406 166.531C198.74 166.415 195.768 166.29 192.809 166.382L192.829 166.366C192.982 166.244 193.145 166.135 193.316 166.04L193.485 165.95C193.747 165.807 193.999 165.666 194.236 165.527C197.701 163.499 198.464 161.814 198.015 160.944C197.59 160.139 196.338 160.107 194.822 160.884C193.758 161.442 192.837 162.239 192.134 163.213C192.364 160.21 191.357 158.52 190.278 157.957C189.942 157.761 189.55 157.686 189.166 157.744C188.782 157.801 188.43 157.988 188.166 158.273C187.3 159.201 187.089 161.353 189.09 164.615C189.258 164.904 189.4 165.207 189.515 165.521C189.535 165.567 189.553 165.611 189.571 165.658C189.632 165.807 189.694 165.95 189.76 166.078C189.839 166.239 189.95 166.381 190.087 166.495C189.224 166.49 188.364 166.409 187.516 166.252C186.509 166.088 185.665 165.954 184.369 166.326C184.113 166.401 183.839 166.493 183.543 166.61C183.296 166.709 183.032 166.823 182.75 166.956C182.629 167.013 182.504 167.073 182.376 167.137L182.009 167.325C180.398 168.168 178.25 169.539 175.176 171.732C174.993 171.861 174.405 172.231 173.662 172.698C173.169 173.008 172.51 173.423 171.953 173.779C171.83 173.858 171.713 173.932 171.604 174.005L171.258 174.232L171.125 174.323C171.648 175.024 172.597 176.425 173.742 178.122C176.09 181.589 180.425 187.987 181.415 188.521C181.86 188.368 182.623 188.05 183.539 187.635C183.808 187.514 184.083 187.385 184.365 187.249C184.993 186.949 185.651 186.616 186.295 186.266C189.13 184.732 189.736 183.912 189.736 183.709C189.714 183.635 189.628 183.417 189.549 183.224C188.838 181.458 188.154 179.517 189.036 178.823C189.684 178.311 190.819 178.686 192.72 180.031C193.26 180.415 195.164 180.562 201.871 177.244C206.197 175.104 210.876 172.344 213.673 170.695C214.52 170.196 215.193 169.799 215.614 169.561C215.815 169.336 215.99 167.951 215.334 166.896C214.595 165.708 213.103 165.452 211.025 166.161ZM188.77 158.836C188.911 158.684 189.1 158.586 189.306 158.559C189.512 158.532 189.72 158.578 189.895 158.689C190.727 159.124 191.909 160.932 191.041 164.951C190.991 165.182 190.95 165.354 190.918 165.482C190.898 165.539 190.882 165.593 190.868 165.643C190.844 165.724 190.827 165.807 190.817 165.891L190.691 165.73C190.651 165.761 190.61 165.79 190.566 165.815C190.53 165.767 190.5 165.716 190.475 165.662C190.411 165.531 190.34 165.356 190.274 165.213C190.141 164.856 189.977 164.511 189.785 164.182C188.146 161.498 188.091 159.563 188.77 158.836ZM191.095 166.459C191.142 166.427 191.18 166.396 191.206 166.374L191.156 166.312H191.232C191.434 166.312 191.536 166.237 191.623 166.016C191.662 165.914 191.695 165.81 191.719 165.704C191.732 165.672 191.746 165.635 191.758 165.599C192.08 164.766 193.056 162.716 195.198 161.621C196.35 161.031 197.149 161.071 197.282 161.329C197.496 161.732 196.698 163.314 192.929 165.313C192.79 165.388 192.655 165.472 192.527 165.565L192.325 165.714C192.27 165.76 192.211 165.802 192.15 165.841C192.187 165.828 192.227 165.823 192.265 165.827C192.304 165.83 192.342 165.843 192.376 165.863L192.019 165.998L191.637 166.143C191.673 166.244 191.724 166.339 191.788 166.425C191.556 166.427 191.325 166.445 191.095 166.459V166.459Z" fill="black"/>
<path d="M159.367 197.029C152.751 194.784 149.234 193.57 146.838 192.286C146.546 192.131 146.272 191.974 146.013 191.815C144.624 190.967 143.597 190.033 142.419 188.722L142.483 188.692L142.814 188.541L143.204 188.358C144.183 187.899 145.122 187.36 146.013 186.747V190.824C146.272 190.997 146.546 191.167 146.838 191.334V186.099C147.923 185.159 148.388 184.273 148.082 183.578C147.919 183.206 147.519 182.92 146.838 182.904V160.958H157.308L156.621 160.133H146.838V148.033C146.552 147.666 146.277 147.311 146.013 146.966V183.004C145.623 183.095 145.243 183.222 144.877 183.383C143.703 183.907 142.649 184.667 141.781 185.616C142.52 182.596 141.891 180.784 140.917 180.063C140.584 179.805 140.169 179.676 139.749 179.701C139.594 179.71 139.441 179.742 139.294 179.795C139.129 179.855 138.972 179.937 138.829 180.039L138.771 180.081C138.627 180.192 138.497 180.319 138.384 180.462C137.921 181.037 137.595 181.958 137.617 183.214C137.617 183.353 137.617 183.494 137.637 183.641C137.657 183.788 137.663 183.937 137.684 184.092C137.023 183.856 136.242 183.812 135.094 183.852L134.692 183.868L134.289 183.89L133.874 183.915C133.379 183.945 132.61 183.979 131.718 184.019C129.393 184.126 126.21 184.271 124.172 184.484C123.934 184.51 123.188 184.549 122.241 184.597L121.144 184.653L120.741 184.676L120.339 184.7C119.765 184.732 119.241 184.766 118.929 184.796C118.966 185.66 118.945 187.369 118.929 189.451C118.881 193.607 118.79 201.271 119.332 202.29C121.228 202.546 123.139 202.68 125.052 202.693C129.123 202.723 129.697 202.163 129.759 202.077C129.787 201.992 129.846 201.716 129.898 201.473C130.274 199.729 130.748 197.815 131.593 197.182C131.778 197.039 132.004 196.959 132.237 196.955C132.537 196.955 132.908 197.098 133.299 197.569C133.552 197.875 133.747 198.559 134.047 199.647C134.227 200.299 134.412 200.971 134.599 201.439C134.819 201.978 136.232 202.898 143.256 202.987C147.907 203.047 153.275 202.729 157.197 202.498C159.105 202.385 160.619 202.296 161.389 202.296C161.65 202.282 162.578 201.463 162.723 200.378C162.852 198.984 161.713 197.835 159.367 197.029ZM147.327 183.917C147.394 184.07 147.285 184.432 146.838 184.941V183.733C147.124 183.753 147.287 183.832 147.327 183.923V183.917ZM145.203 184.144C145.464 184.029 145.734 183.934 146.009 183.858V185.716C144.962 186.516 143.826 187.192 142.624 187.73C142.497 187.79 142.369 187.849 142.234 187.909L142.141 187.951C142.034 188 141.94 188.05 141.851 188.098C141.688 187.911 141.519 187.716 141.348 187.512C141.422 187.4 141.501 187.283 141.589 187.16C141.678 187.037 141.755 186.939 141.845 186.824C142.724 185.664 143.878 184.743 145.203 184.144V184.144ZM138.507 184.023C138.483 183.852 138.467 183.687 138.455 183.526C138.356 182.129 138.71 181.168 139.272 180.739C139.432 180.603 139.634 180.528 139.844 180.525C140.054 180.522 140.259 180.593 140.422 180.725C141.036 181.186 141.704 182.717 140.903 185.708C140.861 185.863 140.816 186.02 140.768 186.182C140.72 186.343 140.673 186.486 140.619 186.645C139.789 185.676 139.194 185.022 138.606 184.593C138.567 184.4 138.533 184.208 138.507 184.025V184.023Z" fill="black"/>
<path d="M168.504 81.9069C169.69 82.4102 171.004 82.9136 172.46 83.4048C175.466 84.4296 180.02 85.6014 182.742 86.302C183.966 86.6161 184.932 86.8658 185.182 86.9523C185.504 87.0737 185.845 87.1417 186.189 87.1537C186.343 87.1639 186.497 87.1386 186.64 87.0796C186.783 87.0206 186.91 86.9295 187.012 86.8134C187.749 85.9134 186.541 83.7753 184.512 80.3587C183.674 78.9493 182.881 77.6145 182.464 76.642C181.614 74.6629 180.048 72.1322 178.212 69.1927C174.801 63.7205 170.561 56.9114 170.024 51.568C169.734 48.6748 168.165 46.3333 165.83 45.2864C163.905 44.4287 161.823 44.5998 160.259 45.7474C159.136 46.5709 158.391 47.8172 158.044 49.3714C156.869 50.3781 155.536 51.8277 155.628 52.5767C155.667 52.8605 155.894 53.1625 156.414 53.1625H156.816H157.461C157.624 53.1625 157.785 53.1625 157.946 53.1625C158.397 57.3422 158.197 60.8837 158.02 64.0164C157.644 70.6242 157.382 75.273 163.658 79.3741C163.827 81.9915 164.169 85.7564 164.288 87.0248C159.206 87.202 153.925 88.5388 150.798 92.3058C149.59 93.7614 148.755 96.2519 148.161 99.7672C148.416 99.9833 148.661 100.205 148.896 100.434C149.468 96.8096 150.267 94.2345 151.435 92.8333C156.553 86.6845 167.928 87.3852 173.841 88.7663C177.302 89.5717 178.615 90.4696 178.673 90.7535L178.723 90.975L178.939 91.0495C179.682 91.3072 181.536 94.0372 182.71 113.776C183.092 120.219 183.314 126.834 183.424 132.055H168.035L168.268 132.468L168.502 132.87H183.086V136.317H170.443L170.674 136.72L170.906 137.133H183.513C183.535 138.804 183.543 140.128 183.543 140.99V160.107H183.084C183.221 160.421 183.334 160.695 183.429 160.932H183.543V161.23C183.962 162.348 183.869 162.543 183.807 162.674L183.749 162.797L183.547 162.905V165.68C183.843 165.573 184.115 165.478 184.373 165.42V141.032C184.373 137.352 184.224 125.272 183.539 113.748C182.4 94.5909 180.67 91.0474 179.398 90.373C178.794 89.2314 175.572 88.3596 174.147 88.0154C172.192 87.5613 170.204 87.2631 168.202 87.1235C168.236 86.5195 168.266 85.9658 168.294 85.4262C168.355 84.2142 168.413 83.1109 168.504 81.9069ZM156.826 52.3592H156.482C156.619 51.9908 157.203 51.3083 157.857 50.664C158.006 50.517 158.159 50.3721 158.312 50.2311C158.465 50.0902 158.638 49.9392 158.795 49.8083C159.046 49.5878 159.315 49.3897 159.601 49.2164C159.73 49.3372 159.858 49.452 159.985 49.5647C160.503 50.0278 160.952 50.4264 161.193 51.0224C161.332 51.3606 161.262 51.5277 161.193 51.6264C160.873 52.0975 159.752 52.2767 158.677 52.3391L158.262 52.3592L157.859 52.3693C157.454 52.3673 157.088 52.3633 156.828 52.3592H156.826ZM165.113 87.0288C165.011 85.9175 164.7 82.525 164.509 79.9339C165.538 80.5346 166.6 81.077 167.69 81.5586C167.586 82.8854 167.523 84.0672 167.455 85.3839C167.425 85.9215 167.396 86.4792 167.362 87.0751C166.641 87.0349 165.878 87.0188 165.115 87.0288H165.113Z" fill="black"/>
<path d="M23.4088 58.5301C23.3841 58.6337 23.3653 58.7385 23.3524 58.8442C23.3524 59.6817 24.643 59.4281 24.4014 58.6549C24.2342 58.1194 23.5477 58.2503 23.4088 58.5301Z" fill="black"/>
<path d="M38.3417 48.8057C38.3166 48.9092 38.2978 49.0141 38.2853 49.1198C38.2853 49.9574 39.5738 49.7037 39.3342 48.9306C39.1671 48.395 38.4806 48.5259 38.3417 48.8057Z" fill="black"/>
<path d="M90.7568 53.4223C90.7303 53.5256 90.7107 53.6305 90.6984 53.7364C90.6984 54.5739 91.9889 54.3203 91.7473 53.5492C91.5802 53.0116 90.8957 53.1425 90.7568 53.4223Z" fill="black"/>
<path d="M76.0413 76.7609C76.0166 76.8651 75.9977 76.9706 75.985 77.077C75.985 77.9125 77.2735 77.6588 77.0339 76.8877C76.8708 76.3522 76.1843 76.483 76.0413 76.7609Z" fill="black"/>
<path d="M89.3716 87.8805C89.3449 87.9844 89.3254 88.09 89.3132 88.1966C89.3132 89.0342 90.6038 88.7785 90.3622 88.0074C90.1951 87.4718 89.5085 87.6027 89.3716 87.8805Z" fill="black"/>
<path d="M58.1025 69.5028C57.9354 68.9673 57.2489 69.1001 57.112 69.378C57.0854 69.4812 57.0659 69.5862 57.0536 69.6921C57.0536 70.5296 58.3441 70.2759 58.1025 69.5028Z" fill="black"/>
<path d="M11.357 71.8785C11.3303 71.9824 11.3108 72.088 11.2986 72.1946C11.2986 73.0302 12.5891 72.7765 12.3475 72.0054C12.1804 71.4698 11.4939 71.5987 11.357 71.8785Z" fill="black"/>
<path d="M33.9123 79.7688C33.7452 79.2312 33.0587 79.3661 32.9198 79.6419C32.895 79.7461 32.8762 79.8517 32.8634 79.958C32.8634 80.7936 34.164 80.5399 33.9123 79.7688Z" fill="black"/>
<path d="M59.4555 58.9409C59.2884 58.4053 58.6018 58.5382 58.4629 58.816C58.4381 58.9196 58.4193 59.0244 58.4065 59.1301C58.4065 59.9677 59.6971 59.72 59.4555 58.9409Z" fill="black"/>
<path d="M62.9688 89.8596C62.8016 89.3241 62.1151 89.457 61.9782 89.7348C61.9517 89.8381 61.9321 89.943 61.9198 90.0489C61.9198 90.8864 63.2104 90.6327 62.9688 89.8596Z" fill="black"/>
<path d="M28.1844 84.2162C28.0173 83.6787 27.3307 83.8136 27.1918 84.0894C27.1672 84.1929 27.1484 84.2978 27.1355 84.4035C27.1355 85.241 28.424 84.9873 28.1844 84.2162Z" fill="black"/>
<path d="M33.3748 57.5295V57.5839C33.109 57.9584 33.3023 58.3671 33.5016 58.359C35.2975 58.2825 33.6345 56.6618 33.3748 57.5295Z" fill="black"/>
<path d="M110.61 67.2881C112.41 67.2116 110.747 65.5908 110.487 66.4586V66.513C110.218 66.8874 110.411 67.2962 110.61 67.2881Z" fill="black"/>
<path d="M26.1892 74.3267V74.3831C25.9234 74.7576 26.1147 75.1663 26.314 75.1562C28.1119 75.0797 26.4489 73.459 26.1892 74.3267Z" fill="black"/>
<path d="M93.66 70.0504C95.4579 69.9739 93.7949 68.3532 93.5352 69.2209V69.2753C93.2674 69.6498 93.4607 70.0585 93.66 70.0504Z" fill="black"/>
<path d="M73.3173 89.1429V89.1972C73.0515 89.5717 73.2428 89.9804 73.4441 89.9724C75.236 89.8958 73.577 88.2751 73.3173 89.1429Z" fill="black"/>
<path d="M30.1716 65.9211V65.9755C29.9058 66.3499 30.0971 66.7586 30.2984 66.7506C32.0943 66.6721 30.4313 65.0513 30.1716 65.9211Z" fill="black"/>
<path d="M77.2997 80.7351V80.7895C77.0339 81.164 77.2272 81.5727 77.4265 81.5646C79.2224 81.4881 77.5594 79.8674 77.2997 80.7351Z" fill="black"/>
<path d="M21.629 50.4345V50.4888C21.3632 50.8633 21.5565 51.272 21.7558 51.264C23.5497 51.1875 21.8827 49.5667 21.629 50.4345Z" fill="black"/>
<path d="M112.758 73.767C114.558 73.6905 112.895 72.0698 112.636 72.9375V72.9939C112.368 73.3684 112.559 73.7771 112.758 73.767Z" fill="black"/>
<path d="M36.5619 40.7101V40.7645C36.2961 41.139 36.4894 41.5477 36.6887 41.5396C38.4826 41.4631 36.8196 39.8424 36.5619 40.7101Z" fill="black"/>
<path d="M55.3302 61.2823V61.3306C55.0644 61.7051 55.2557 62.1138 55.457 62.1058C57.2529 62.0353 55.5899 60.4146 55.3302 61.2823Z" fill="black"/>
<path d="M38.6557 84.327C40.4537 84.2505 38.7906 82.6297 38.5309 83.4975V83.5518C38.2632 83.9263 38.4564 84.335 38.6557 84.327Z" fill="black"/>
<path d="M20.8156 81.0835V81.1378C20.5498 81.5123 20.7411 81.921 20.9424 81.913C22.7383 81.8365 21.0773 80.2157 20.8156 81.0835Z" fill="black"/>
<path d="M8.17387 80.558C9.97178 80.4795 8.30877 78.8608 8.04905 79.7285V79.7829C7.78933 80.1574 7.97254 80.5661 8.17387 80.558Z" fill="black"/>
<path d="M51.6639 63.6239V63.6782C51.3961 64.0527 51.5894 64.4614 51.7887 64.4534C53.5846 64.3769 51.9236 62.7561 51.6639 63.6239Z" fill="black"/>
<path d="M55.1771 94.5507V94.6051C54.9114 94.9795 55.1027 95.3882 55.304 95.3802C57.0999 95.2956 55.4369 93.6749 55.1771 94.5507Z" fill="black"/>
<path d="M7.36251 66.8351V66.8915C7.09675 67.266 7.28802 67.6727 7.48935 67.6646C9.28524 67.5881 7.62223 65.9613 7.36251 66.8351Z" fill="black"/>
<path d="M50.9774 50.7304V50.7868C50.7096 51.1613 50.9029 51.57 51.1022 51.5599C52.9001 51.4834 51.2371 49.8546 50.9774 50.7304Z" fill="black"/>
<path d="M54.4987 81.6513V81.7056C54.2329 82.0801 54.4242 82.4888 54.6255 82.4807C56.4133 82.4022 54.7503 80.7815 54.4987 81.6513Z" fill="black"/>
<path d="M1.77148 75.424L1.82383 75.4421C2.11576 75.7965 2.56071 75.7179 2.605 75.5226C3.00364 73.761 1.00238 74.9388 1.77148 75.424Z" fill="black"/>
<path d="M45.3863 59.3173L45.4387 59.3354C45.7306 59.6898 46.1735 59.6113 46.2198 59.418C46.6185 57.6563 44.6172 58.8341 45.3863 59.3173Z" fill="black"/>
<path d="M84.2799 80.9204C84.5718 81.2767 85.0168 81.1982 85.0611 81.0029C85.4637 79.2473 83.4504 80.4251 84.2275 80.9043L84.2799 80.9204Z" fill="black"/>
<path d="M103.535 79.0017L103.588 79.0178C103.88 79.3741 104.325 79.2956 104.369 79.1003C104.768 77.3447 102.766 78.5225 103.535 79.0017Z" fill="black"/>
<path d="M28.8347 50.5352C28.3092 50.6439 28.6092 52.0814 29.5132 51.3405C29.8071 51.103 29.8071 50.3339 28.8347 50.5352Z" fill="black"/>
<path d="M106.624 60.2716C106.918 60.032 106.92 59.265 105.947 59.4663C105.422 59.573 105.72 61.0105 106.624 60.2716Z" fill="black"/>
<path d="M81.0042 50.3399C80.4787 50.4486 80.7767 51.8881 81.6807 51.1452C81.9746 50.9076 81.9766 50.1386 81.0042 50.3399Z" fill="black"/>
<path d="M76.6453 66.1627C76.9393 65.9211 76.9393 65.156 75.9668 65.3574C75.4373 65.458 75.7373 66.8976 76.6453 66.1627Z" fill="black"/>
<path d="M13.3502 58.0852C12.8247 58.1959 13.1227 59.6334 14.0266 58.8905C14.3206 58.655 14.3226 57.8859 13.3502 58.0852Z" fill="black"/>
<path d="M115.78 78.4098C116.074 78.1702 116.076 77.4031 115.104 77.6044C114.579 77.7091 114.877 79.1486 115.78 78.4098Z" fill="black"/>
<path d="M77.048 42.5241C76.5225 42.6328 76.8205 44.0723 77.7245 43.3294C78.0184 43.0919 78.0204 42.3228 77.048 42.5241Z" fill="black"/>
<path d="M84.9705 94.2809C85.2644 94.0393 85.2664 93.2742 84.294 93.4755C83.7685 93.5802 84.0665 95.0177 84.9705 94.2809Z" fill="black"/>
<path d="M61.1547 73.7107C61.4487 73.4691 61.4507 72.704 60.4783 72.9053C59.9528 73.008 60.2507 74.4496 61.1547 73.7107Z" fill="black"/>
<path d="M47.0493 68.935C46.5238 69.0438 46.8238 70.4813 47.7278 69.7404C48.0238 69.5028 48.0238 68.7337 47.0493 68.935Z" fill="black"/>
<path d="M21.6491 67.3324C21.1236 67.4411 21.4216 68.8806 22.3256 68.1377C22.6196 67.9001 22.6216 67.131 21.6491 67.3324Z" fill="black"/>
<path d="M35.0056 47.2998C35.2995 47.0602 35.2995 46.2931 34.3291 46.4944C33.8016 46.5991 34.1016 48.0427 35.0056 47.2998Z" fill="black"/>
<path d="M89.6736 63.034C89.9676 62.7944 89.9676 62.0273 88.9971 62.2286C88.4696 62.3373 88.7696 63.7729 89.6736 63.034Z" fill="black"/>
<path d="M69.4537 82.9559C69.7477 82.7163 69.7497 81.9492 68.7772 82.1506C68.2518 82.2553 68.5497 83.6948 69.4537 82.9559Z" fill="black"/>
<path d="M37.6833 74.0147C37.1578 74.1234 37.4578 75.5629 38.3618 74.82C38.6557 74.5885 38.6557 73.8133 37.6833 74.0147Z" fill="black"/>
<path d="M105.708 69.7202C106.002 69.4807 106.004 68.7136 105.031 68.9149C104.506 69.0196 104.804 70.4591 105.708 69.7202Z" fill="black"/>
</svg>
