<svg width="216" height="204" viewBox="0 0 216 204" fill="none" xmlns="http://www.w3.org/2000/svg">
<path d="M31.8178 69.5853L32.2205 69.6095L31.8178 69.5853Z" fill="black"/>
<path d="M210.358 165.77C207.064 166.896 199.651 165.722 192.134 165.972C192.277 165.861 192.429 165.763 192.589 165.678C199.031 162.255 197.769 159.569 194.477 161.248C192.103 162.456 191.066 164.786 190.779 165.601C190.813 165.466 190.857 165.281 190.911 165.037C192.959 155.516 183.988 156.38 188.898 164.395C189.289 165.033 189.448 165.762 189.703 166.078C186.243 166.127 185.645 164.754 181.616 166.779C181.213 166.086 180.694 165.043 180.14 163.988L182.886 162.537C183.14 162.003 180.821 157.266 177.239 150.562C177.239 150.562 174.116 144.856 169.79 137.173H182.957V132.077H166.91C160.399 120.601 152.396 106.894 147.886 100.613C145.658 97.5062 140.878 96.2398 132.625 96.2539C126.052 96.268 112.347 96.3365 98.6001 96.4371C95.1774 88.3838 91.3239 78.7399 91.1125 78.2104L91.6903 78.442V78.4158C92.0225 78.6171 92.8359 79.058 96.321 80.1956C132.857 92.1346 118.206 63.948 100.448 52.9652C93.6533 48.7634 79.6043 36.5787 69.9987 36.8888V35.6304C69.9965 35.3503 69.8835 35.0824 69.6842 34.8854C69.485 34.6884 69.2158 34.5784 68.9356 34.5795L63.4755 34.6077C63.4654 33.8587 63.3527 33.146 63.3285 32.4333C63.2943 31.4266 63.2459 30.2428 64.2889 29.3045C66.6827 27.1503 68.1142 24.9034 67.7115 20.8687C67.3491 17.2769 65.2794 12.1852 64.3573 7.80617L64.5123 7.74577L64.3472 7.75785C64.3311 7.68537 64.313 7.61088 64.2989 7.54041C62.1728 -3.04167 43.1589 -1.6565 45.593 10.9631C45.6434 11.2188 45.8306 12.5033 46.1105 14.2166C45.9508 14.3375 45.8166 14.4885 45.7154 14.6613C45.6141 14.834 45.5479 15.025 45.5206 15.2233L46.2313 14.9434C46.5876 17.0776 47.0648 19.6889 47.5862 21.8129C48.001 23.5061 49.1144 25.3282 49.5593 25.906C51.2344 28.0804 51.3411 32.248 51.478 34.6721L45.4581 34.7023C45.178 34.7044 44.9101 34.8175 44.7131 35.0167C44.5161 35.216 44.4061 35.4852 44.4072 35.7653V35.8761C38.6269 34.7244 32.6554 39.2987 26.6717 44.3864C22.7075 47.7567 17.3198 51.5559 15.0447 53.6256C5.75521 62.0816 -5.40269 74.5824 3.97139 81.8485C8.34637 85.241 14.5635 86.7711 21.0304 87.4577C31.0447 87.5704 45.1662 87.7556 45.1662 87.7556L47.9023 99.5981C47.9023 99.5981 45.5568 125.785 71.1523 132.077H1.18695V137.175H114.767C117.004 151.425 117.268 167.129 117.268 181.67C117.268 181.71 118.444 181.623 120.245 181.468C120.211 182.374 120.183 183.389 120.185 184.265C118.977 184.331 117.922 184.4 117.928 184.454C118.129 186.425 117.435 202.471 118.576 202.681C120.388 203.013 128.824 203.609 129.553 202.258C129.7 201.986 130.222 198.288 131.264 197.506C131.591 197.261 131.969 197.305 132.404 197.827C132.774 198.274 133.185 200.462 133.64 201.585C134.959 204.853 156.975 202.717 160.808 202.701C161.797 202.701 165.066 198.71 158.974 196.643C154.746 195.205 151.784 194.199 149.582 193.319L145.37 191.889C143.601 191.287 142.063 190.15 140.97 188.635C139.876 187.12 139.281 185.302 139.267 183.433L138.865 137.165H139.66L164.784 169.803C165.648 170.81 166.147 171.387 166.147 171.387L168.338 170.23C169.192 171.349 170.13 172.694 170.822 173.652C170.325 173.977 169.985 174.212 170.017 174.238C171.308 175.767 179.882 189.268 180.927 188.926C182.594 188.382 189.786 185.07 189.619 183.631C189.563 183.174 185.975 176.103 191.952 180.359C194.888 182.449 212.192 171.649 215.307 169.906C216.102 169.473 216.132 163.797 210.358 165.77ZM41.7798 69.7866H41.7335H41.6751H41.6046H41.5563C41.3751 69.7725 41.1536 69.7584 40.8899 69.7444H40.6543C39.8691 69.7121 38.8282 69.692 37.6947 69.6799H37.592H36.829H36.4706H35.3613H34.4653H33.9258H33.0902H31.8601H30.8071H30.4749C30.2051 69.6799 29.9857 69.6799 29.8306 69.6678C29.6454 69.6678 29.5468 69.6538 29.5588 69.6437L29.6112 69.5994C30.4467 69.6155 31.1957 69.6356 31.8138 69.6678L29.6817 69.543C31.6044 67.9867 40.3523 62.45 40.3705 61.228L42.0717 69.9316C41.9864 69.8621 41.8867 69.8126 41.7798 69.7866V69.7866ZM112.552 124.497C112.74 126.283 113.156 128.524 113.73 131.37C113.779 131.604 113.823 131.842 113.869 132.077H86.9831C95.3626 130.656 104.264 127.61 112.552 124.497ZM191.383 166H191.499H191.383Z" fill="black"/>
<path d="M167.229 87.504L167.631 81.319C168.936 81.8888 170.402 82.4545 172.061 83.0203C176.425 84.5081 183.939 86.2738 184.785 86.5678C189.031 88.0476 183.013 80.2459 181.541 76.8172C179.067 71.049 169.892 59.8428 169.071 51.6304C168.32 44.1328 159.258 42.812 157.885 49.601C156.475 50.7949 154.724 52.774 155.887 52.774C156.29 52.774 157.011 52.7981 157.786 52.774C157.786 52.8022 157.786 52.8283 157.786 52.8545C159.304 66.1425 154.228 73.2194 163.516 79.1708C163.717 82.3357 164.198 87.4456 164.198 87.4456L163.58 79.2111C164.867 80.0114 166.214 80.7127 167.607 81.3089C167.44 83.3323 167.378 84.9954 167.253 87.1798L167.229 87.504Z" fill="black"/>
<path d="M183.019 199.008H183.845V188.171C183.559 188.306 183.283 188.43 183.019 188.549V199.008Z" fill="white"/>
<path d="M89.228 132.077C88.4764 132.226 87.7294 132.364 86.9872 132.49C86.0476 132.648 85.1128 132.783 84.1826 132.893H113.601C113.575 132.754 113.547 132.617 113.521 132.49C113.495 132.363 113.467 132.214 113.438 132.077H89.228Z" fill="white"/>
<path d="M134.423 180.681L134.007 180.713L133.604 180.746C130.918 180.947 127.602 181.247 124.665 181.503L120.638 181.853L120.235 181.887L119.833 181.921C119.811 182.566 119.792 183.24 119.79 183.876L120.193 183.852L120.596 183.83L121.651 183.776C122.51 183.731 123.322 183.691 123.537 183.667C125.599 183.451 128.796 183.304 131.132 183.2C132.019 183.16 132.786 183.123 133.276 183.095L133.711 183.069L134.123 183.051L134.526 183.035C134.526 182.96 134.526 182.888 134.526 182.809C134.514 182.513 134.5 182.183 134.486 181.819C134.464 181.404 134.445 181.027 134.423 180.681Z" fill="white"/>
<path d="M172.689 172C173.363 171.575 173.999 171.174 174.16 171.059C177.221 168.879 179.395 167.484 181.062 166.61L181.429 166.421C181.555 166.356 181.678 166.298 181.799 166.239C181.565 165.811 181.296 165.291 181.018 164.756L180.71 164.164L180.345 164.365L179.979 164.566L168.966 170.393L168.596 170.594L168.227 170.796C168.831 171.587 169.435 172.463 169.975 173.212L170.243 173.588C170.341 173.522 170.444 173.445 170.587 173.361L170.935 173.135C171.362 172.833 171.932 172.467 172.689 172Z" fill="white"/>
<path d="M120.253 181.054L120.656 181.019L124.576 180.681C127.514 180.423 130.817 180.135 133.521 179.924L133.924 179.894L134.343 179.862C136.179 179.723 137.645 179.632 138.369 179.63C139.092 177.456 138.822 157.196 138.641 143.684C138.611 141.365 138.581 139.172 138.557 137.175C138.557 137.036 138.557 136.897 138.557 136.762C138.557 136.627 138.557 136.486 138.557 136.36V136.158C138.557 135.713 138.552 135.279 138.543 134.858C138.526 134.215 138.498 133.565 138.456 132.913L138.426 132.51C138.426 132.373 138.406 132.234 138.394 132.097C137.945 126.72 136.515 121.366 133.562 119.413C132.178 118.501 130.542 118.445 128.685 119.244L128.637 119.264H128.585C127.055 119.498 122.802 121.02 120.984 121.721L119.261 122.383C117.229 123.168 115.13 123.978 112.985 124.785C113.187 126.486 113.577 128.61 114.125 131.302C114.179 131.564 114.23 131.828 114.28 132.091C114.308 132.228 114.334 132.365 114.362 132.504L114.441 132.907C114.658 134.044 114.858 135.194 115.045 136.353L115.111 136.756L115.178 137.169C117.437 151.584 117.666 167.315 117.67 181.247C118.103 181.223 118.878 181.162 119.843 181.082L120.253 181.054Z" fill="white"/>
<path d="M179.597 163.819L179.963 163.618L180.325 163.427L182.494 162.279C182.377 161.829 182.22 161.389 182.025 160.966C181.924 160.731 181.805 160.457 181.662 160.141C180.496 157.572 177.776 152.184 171.509 140.9C170.832 139.68 170.136 138.431 169.427 137.167L169.196 136.754L168.964 136.351C168.325 135.213 167.678 134.064 167.021 132.905L166.788 132.502L166.554 132.089C161.684 123.494 156.5 114.559 152.372 107.678C152.159 107.319 151.948 106.963 151.74 106.609C150.657 104.772 149.624 103.023 148.199 101.517C147.965 101.269 147.717 101.028 147.46 100.794C144.74 98.3277 140.614 96.6787 132.762 96.6787H132.654C126.044 96.6928 112.708 96.7593 99.2504 96.8559H98.8014H98.3525C91.8836 96.9022 85.4208 96.9586 79.6989 97.019L79.7231 96.6163L79.7352 96.415H79.556L79.4895 96.2137C79.0869 95.0218 78.6258 93.7312 78.1507 92.3722C76.3387 87.1939 74.279 81.3251 73.1173 77.093C72.8637 76.1729 71.8932 73.4187 70.8523 70.5195L90.8085 78.5265C91.3964 79.9983 94.8352 88.5751 97.9901 96.0284H98.439H98.888C96.0472 89.3502 92.9406 81.6331 91.8796 78.9856C92.4272 79.2574 93.5547 79.7265 96.2123 80.5962C112.148 85.8047 117.278 83.0505 118.776 79.8231C120.211 76.7326 118.838 71.7899 115.011 66.2593C111.407 61.0347 106.041 55.9349 100.674 52.6129C99.1115 51.6485 97.1847 50.2734 94.954 48.6809C90.2931 45.3528 84.4947 41.2134 78.9822 38.7169C75.6884 37.223 72.8455 36.472 70.4174 36.4579V35.6284C70.4148 35.2402 70.2588 34.8687 69.9836 34.595C69.7083 34.3212 69.336 34.1673 68.9477 34.1668L63.8882 34.1929C63.8721 33.9111 63.8479 33.6372 63.8238 33.3695C63.7936 33.0413 63.7654 32.7312 63.7553 32.4192V32.399C63.7211 31.4246 63.6849 30.4159 64.5788 29.6106C67.025 27.412 68.5632 25.0766 68.1323 20.8264C67.931 18.7285 67.1559 16.1957 66.3465 13.512C65.8049 11.7141 65.2472 9.8618 64.8566 8.1263C64.7398 8.1404 64.6029 8.15449 64.454 8.16657C64.3291 8.16657 64.1902 8.18267 64.0352 8.18871C63.6547 8.20281 63.1795 8.20885 62.5856 8.20684H61.6675C59.6119 8.20684 55.3315 8.18067 54.2001 8.40817C54.0692 8.43435 53.9202 8.45448 53.7471 8.47663C52.2471 8.67796 50.9284 9.0464 51.1176 11.3396C51.2284 12.616 51.0693 13.3952 50.6022 13.8683C50.0143 14.4723 49.1124 14.3938 48.0674 14.3153C47.8963 14.3032 47.7211 14.2891 47.5399 14.279C47.2143 14.2483 46.886 14.2974 46.5836 14.422C46.4409 14.4886 46.314 14.5846 46.2111 14.7039C46.0716 14.8733 45.9798 15.077 45.9454 15.2938L45.891 15.2837C46.2434 17.3715 46.6964 19.8661 47.2037 21.9096C47.6366 23.6692 48.7701 25.5336 49.2533 26.1557C50.7351 28.0805 50.9284 31.7447 51.0653 34.1688C51.0653 34.201 51.0653 34.2292 51.0653 34.2594L45.4803 34.2876C45.1574 34.2911 44.8446 34.4006 44.59 34.5992C44.3354 34.7978 44.153 35.0745 44.071 35.3868C38.3491 34.5251 32.448 38.9545 26.4322 44.0703C24.447 45.7575 22.0673 47.5816 19.9673 49.1903C17.807 50.8472 15.9407 52.2767 14.7951 53.3196C4.61165 62.5507 -0.212295 69.7866 0.00715855 75.4481C0.111852 78.0916 1.35408 80.3546 3.70163 82.1747C7.05383 84.7779 11.4832 86.296 16.2749 87.1839C11.8858 87.6308 7.56521 89.0744 4.85728 92.336C1.40642 96.4794 1.03194 108.978 0.427944 129.685C0.323251 133.295 0.21252 137.026 0.0776264 141.041V199.025H0.903094V160.975H37.6122V199.008H38.4377V141.024C38.4377 140.163 38.4377 138.838 38.4075 137.167H114.342C114.322 137.028 114.298 136.891 114.276 136.754C114.254 136.617 114.234 136.478 114.211 136.351H38.3954C38.3813 135.307 38.3612 134.151 38.335 132.905H72.318C71.865 132.832 71.4161 132.752 70.9731 132.659C70.7154 132.605 70.4617 132.55 70.2101 132.492C69.6638 132.364 69.1269 132.227 68.5994 132.079H38.3169C38.2021 126.845 37.9867 120.211 37.6021 113.758C36.4626 94.601 34.7331 91.0575 33.4607 90.383C33.0017 89.5294 31.093 88.8247 29.5629 88.3818C32.0554 88.4382 34.4694 88.4341 36.7062 88.4301C40.0805 88.4301 43.016 88.418 45.3172 88.6073L47.1192 97.782L47.3205 97.7096C47.3825 97.6891 47.4457 97.6723 47.5097 97.6592C47.6024 97.6371 47.7332 97.6089 47.9124 97.5747L46.1709 88.6757L40.9282 61.8461C40.91 61.685 40.8215 61.2421 40.4409 59.3556L40 57.1026V57.1771C39.6739 55.5524 39.3537 53.9095 39.3517 53.6578H38.5263C38.5263 54.0605 38.9692 56.2752 39.5933 59.3334C39.7262 59.9797 39.8591 60.6381 39.9577 61.1313C39.7423 61.9367 35.1096 65.1338 32.6151 66.8613C31.2642 67.7975 30.0783 68.6169 29.4683 69.1041L27.6563 69.0759C23.6719 69.0236 18.713 68.9572 16.8366 68.3069L16.5648 69.088C18.5681 69.7806 23.6014 69.8491 27.6381 69.9034C28.2281 69.9034 28.7918 69.9175 29.3233 69.9276C29.4763 70.0021 29.7964 70.0061 30.6118 70.0142C31.2682 70.0142 32.1782 70.0242 33.203 70.0282C36.0378 70.0282 40.6523 70.0524 41.7093 70.1873L45.1441 87.7536C42.8469 87.5805 39.9779 87.5865 36.6881 87.5926C32.8829 87.5926 28.5623 87.6046 24.2255 87.3107C23.3014 87.1979 22.329 87.1094 21.3284 87.0651C14.8293 86.3987 8.54772 84.8967 4.19489 81.5204C2.04868 79.8573 0.913158 77.8017 0.818532 75.4119C0.617198 70.0866 5.48141 62.8588 15.2964 53.9296C16.4158 52.9109 18.2701 51.4915 20.4163 49.8466C22.5243 48.2359 24.9121 46.4018 26.9113 44.7005C30.3219 41.8013 34.2761 38.58 38.0612 37.0498C40.1711 36.2042 42.1301 35.9264 43.9703 36.2183L44.0327 47.9078C44.0354 48.296 44.1913 48.6675 44.4666 48.9412C44.7419 49.215 45.1142 49.3689 45.5025 49.3694V49.3694L55.4604 49.3171L55.392 49.2889L55.5409 48.9044L55.6879 48.5178C55.9235 48.6084 56.153 48.7191 56.3805 48.8218L56.5375 48.8983L56.8214 49.0473C56.9764 49.1298 57.1315 49.2144 57.2845 49.303L57.8663 49.6392C59.2535 50.4446 60.685 51.2902 62.6259 51.2902V52.1156C60.4635 52.1156 58.8629 51.1794 57.4496 50.354C57.1295 50.1667 56.8174 49.9855 56.5073 49.8164C56.3845 49.75 56.2617 49.6855 56.1369 49.6151C56.012 49.5446 55.8892 49.4943 55.7644 49.4379C55.7163 49.5195 55.6752 49.605 55.6416 49.6936C55.3094 50.5875 55.708 51.7593 56.8496 53.2652C57.0308 53.3357 57.2523 53.4243 57.52 53.535L57.5845 53.5612L58.0354 53.7444C59.8998 54.4994 62.9178 55.6289 65.8492 55.6289H66.2801V56.4544H65.8492C63.1715 56.4544 60.4696 55.5765 58.5468 54.8437C58.2489 54.7289 57.971 54.6182 57.7133 54.5135L57.206 54.3122L57.1134 54.2739C57.212 54.6001 57.5301 55.0007 58.1341 55.6047C58.1522 55.651 58.1804 55.7356 58.2026 55.8061C58.5448 56.8409 59.5857 59.9878 65.0861 61.4615C66.5961 61.8642 73.3167 63.9017 74.4965 64.5117L70.2967 69.0719C69.8779 67.9102 69.4631 66.7687 69.0887 65.7559C69.1873 65.5546 69.0605 65.309 68.8692 65.1519C68.3699 63.7748 67.9672 62.6655 67.931 62.5346L67.5283 62.6353L67.1257 62.6735C67.1257 62.7601 67.1257 62.7762 68.1001 65.4338C67.9612 65.762 68.1303 66.0741 68.3014 66.066H68.3256C68.7283 67.1512 69.1873 68.4417 69.6624 69.7605L69.4813 69.9618L69.7752 70.0806C70.8866 73.167 72.006 76.3219 72.2697 77.2843C73.4395 81.5445 75.5011 87.4275 77.3192 92.6199C77.7621 93.8782 78.1829 95.0801 78.5694 96.1955C78.6158 96.3345 78.6641 96.4714 78.7104 96.5982C78.7567 96.725 78.805 96.872 78.8513 97.0009C70.0108 97.0955 63.0607 97.2022 60.8179 97.3089C52.2713 97.7116 49.0963 98.1605 48.0272 98.3599L47.8258 98.4001C47.8258 98.7827 47.8258 99.1753 47.844 99.5759C47.8681 100.514 47.9185 101.501 47.999 102.521C48.8687 113.393 53.4128 128.157 71.096 131.826C71.4986 131.912 71.9234 131.987 72.3442 132.055C74.0016 132.315 75.6758 132.453 77.3534 132.468H78.3419C80.2649 132.438 82.1846 132.3 84.092 132.055C93.1379 130.915 102.987 127.6 112.059 124.203L112.462 124.054L112.865 123.905C114.934 123.124 116.964 122.341 118.929 121.584L120.65 120.919C122.104 120.36 126.608 118.715 128.371 118.427C129.233 118.043 130.164 117.837 131.107 117.823C132.145 117.817 133.16 118.126 134.017 118.711C136.304 120.221 137.739 123.527 138.547 127.336C138.696 128.046 138.824 128.773 138.933 129.51C139.058 130.362 139.155 131.224 139.227 132.085C139.227 132.222 139.249 132.361 139.259 132.498L139.29 132.901C139.332 133.559 139.36 134.213 139.376 134.86C139.386 135.28 139.39 135.696 139.39 136.11V136.136C139.393 136.204 139.401 136.271 139.416 136.337C139.448 136.475 139.49 136.609 139.543 136.74C139.592 136.865 139.652 137.004 139.722 137.153C140.508 138.8 142.628 141.836 145.479 145.583C145.746 145.935 146.022 146.295 146.304 146.66C149.421 150.709 153.268 155.456 157.154 160.127C157.383 160.403 157.611 160.679 157.84 160.952C160.744 164.431 163.643 167.842 166.25 170.858L167.718 170.081L168.088 169.88L168.459 169.678L179.597 163.819ZM87.6274 75.9756V76.028C87.5686 76.1104 87.5281 76.2044 87.5086 76.3038L74.9314 71.2483C75.334 70.9604 75.9521 70.3041 77.2145 68.9209C77.9393 68.1156 78.7587 67.2257 79.0466 67.0284C81.0962 65.619 83.2625 62.7279 85.0041 60.4065C86.0409 59.0234 87.0174 57.7127 87.6415 57.1973C91.1024 58.9126 95.7391 61.075 96.8565 61.2642C96.8565 61.4816 96.9834 61.6467 97.1102 61.6407C98.9021 61.5642 97.2592 59.9555 96.9894 60.8011L96.9693 60.4549C96.0432 60.4045 85.9161 55.5806 84.235 54.4853L83.943 54.2961L82.9364 55.3812L82.8256 55.2182C82.7209 55.0591 82.5699 55.0168 82.3605 54.9746C79.9164 54.4088 77.5205 52.0693 75.2293 48.0286C75.1085 47.8151 74.8045 47.0118 74.4824 46.1642C73.7777 44.3079 72.8999 41.9966 72.2677 41.1832C71.865 40.6477 71.4422 40.3779 71.0013 40.3336C70.8038 40.3189 70.6058 40.3543 70.4255 40.4363L70.4074 37.3055C75.7548 37.3337 82.5055 41.1671 88.5012 45.1898C88.4712 45.2311 88.4487 45.2775 88.4348 45.3267V45.383C88.169 45.7575 88.3603 46.1662 88.5616 46.1562C89.1012 46.134 89.3267 45.9709 89.367 45.7797C91.1628 47.0018 92.8782 48.2279 94.4546 49.3513C96.6975 50.962 98.6343 52.3351 100.221 53.3156C105.504 56.5812 110.777 61.5924 114.326 66.7203C117.989 72.0013 119.341 76.6501 118.033 79.4668C116.114 83.6001 108.457 83.7189 96.474 79.803C92.7554 78.595 92.1313 78.1923 91.8655 78.0212C91.6655 77.8845 91.4342 77.8007 91.193 77.7776H91.1467L88.3804 76.6642C89.0368 76.2595 87.8449 75.2508 87.6274 75.9756ZM37.6122 141.032V160.149H0.905104V141.047C0.949397 139.728 0.991678 138.441 1.03194 137.175H37.582C37.6021 138.844 37.6122 140.171 37.6122 141.032ZM37.5699 136.349H1.21516V132.903H37.5095C37.5357 134.149 37.5558 135.305 37.5699 136.349ZM27.9059 88.7885C31.3668 89.5938 32.6795 90.4918 32.748 90.7756L32.7983 90.9971L33.0158 91.0716C33.7587 91.3293 35.613 94.0594 36.7847 113.798C37.1693 120.241 37.3887 126.857 37.4995 132.077H1.18697C1.20979 131.272 1.23261 130.48 1.25543 129.701C1.83929 109.878 2.22384 96.7814 5.48343 92.8574C9.03293 88.5932 15.5944 87.6228 21.2559 87.8905C22.2169 87.9899 23.18 88.0717 24.145 88.1362C25.4067 88.2869 26.6594 88.5046 27.8979 88.7885H27.9059ZM33.2231 69.2048H32.2487C31.846 69.1766 31.3548 69.1565 30.8152 69.1404C31.4192 68.6994 32.2245 68.1478 33.0943 67.5458C36.9095 64.9043 39.1625 63.2715 40.1651 62.2165L41.5603 69.3538C40.5839 69.2612 38.3954 69.2209 33.2151 69.2048H33.2231ZM45.5306 48.556C45.3599 48.5566 45.1959 48.4896 45.0745 48.3696C44.953 48.2497 44.8839 48.0865 44.8823 47.9158L44.8219 36.4036V35.9667V35.7653C44.8222 35.6919 44.8351 35.619 44.8602 35.5499C44.9041 35.4244 44.9857 35.3155 45.0938 35.238C45.2019 35.1605 45.3312 35.1183 45.4642 35.117L51.1015 35.0889H51.5143H51.929L63.0728 35.0305H63.8963L68.9538 35.0043C69.1238 35.0048 69.2867 35.0723 69.4073 35.1922C69.5279 35.312 69.5964 35.4745 69.598 35.6445V36.4962V37.3458L69.6161 40.6879L69.5255 40.7141L69.6182 41.0946L69.6423 45.7253C69.5584 45.9452 69.4446 46.1525 69.3041 46.3414C68.9236 46.8447 68.378 47.1004 67.635 47.1266C65.8754 47.189 62.4366 46.1743 59.6743 45.3589C57.961 44.8555 56.4791 44.4186 55.5007 44.2475C54.2101 44.024 53.6142 44.6502 53.4873 45.2542C53.286 46.3152 54.2464 47.6702 56.2194 48.5057L45.5306 48.556ZM84.096 55.3672C84.6296 55.6692 85.6342 56.1926 86.8563 56.8047C86.1939 57.453 85.3544 58.5724 84.3497 59.9133C82.6444 62.1863 80.5244 65.0151 78.5855 66.3559C78.2433 66.5915 77.6111 67.274 76.6105 68.3693C75.8333 69.2229 74.6596 70.5114 74.3656 70.6443C74.4036 70.6307 74.4442 70.6258 74.4844 70.6302L74.4502 71.0571L70.951 69.6477L84.096 55.3672ZM53.6081 7.66122C53.7652 7.63908 53.9021 7.62096 54.0108 7.60082C55.2188 7.35318 59.4025 7.36929 61.6474 7.37936H62.5634C63.093 7.37936 63.5057 7.37936 63.8318 7.36526C63.9929 7.36526 64.1318 7.3552 64.2526 7.34916C64.4278 7.33909 64.5627 7.32701 64.6674 7.31493C63.4352 1.62726 57.4818 -0.738401 52.386 0.268266C48.2607 1.0736 43.8978 4.39157 45.1844 11.0396C45.2065 11.1483 45.2588 11.4886 45.3313 11.9617C45.4139 12.4912 45.5327 13.216 45.6635 14.0536C45.7745 13.9436 45.899 13.8482 46.034 13.7697C46.1581 13.6975 46.2889 13.6375 46.4246 13.5905C46.7928 13.4722 47.1803 13.4257 47.5661 13.4536L48.1057 13.4918C48.9815 13.5583 49.6721 13.6106 49.9902 13.2905C50.262 13.0167 50.3566 12.3845 50.27 11.4141C49.9801 8.14241 52.5209 7.80417 53.6081 7.66122Z" fill="white"/>
<path d="M66.2458 38.286C66.3417 38.3796 66.458 38.4495 66.5855 38.4904C66.713 38.5313 66.8483 38.542 66.9807 38.5216C67.2011 38.5006 67.4062 38.3997 67.5575 38.2381C67.7088 38.0764 67.7958 37.8651 67.8021 37.6438C67.8021 37.6337 67.8021 37.6256 67.8021 37.6176C67.7921 37.4837 67.7431 37.3556 67.6612 37.2492C67.543 37.0976 67.3744 36.9933 67.186 36.9552C66.9946 36.918 66.7964 36.9389 66.617 37.0154C66.4376 37.0918 66.2852 37.2202 66.1794 37.384C66.0902 37.5221 66.0472 37.685 66.0566 37.8491C66.0566 37.8733 66.0666 37.8934 66.0707 37.9176C66.091 38.0551 66.152 38.1834 66.2458 38.286V38.286Z" fill="white"/>
<path d="M210.491 166.161C208.448 166.86 204.938 166.707 200.871 166.531C198.206 166.415 195.234 166.29 192.274 166.382L192.295 166.366C192.448 166.244 192.611 166.135 192.782 166.04L192.951 165.95C193.213 165.807 193.464 165.666 193.702 165.527C197.167 163.499 197.93 161.814 197.481 160.944C197.056 160.139 195.804 160.107 194.288 160.884C193.223 161.442 192.303 162.239 191.6 163.213C191.829 160.21 190.823 158.52 189.744 157.957C189.408 157.761 189.016 157.686 188.632 157.744C188.248 157.801 187.895 157.988 187.632 158.273C186.766 159.201 186.555 161.353 188.556 164.615C188.724 164.904 188.866 165.207 188.981 165.521C189.001 165.567 189.019 165.611 189.037 165.658C189.097 165.807 189.16 165.95 189.226 166.078C189.305 166.239 189.416 166.381 189.552 166.495C188.69 166.49 187.83 166.409 186.981 166.252C185.975 166.088 185.131 165.954 183.835 166.326C183.579 166.401 183.305 166.493 183.009 166.61C182.761 166.709 182.498 166.823 182.216 166.956C182.095 167.013 181.97 167.073 181.841 167.137L181.475 167.325C179.864 168.168 177.716 169.539 174.642 171.732C174.458 171.861 173.871 172.231 173.128 172.698C172.634 173.008 171.976 173.423 171.418 173.779C171.295 173.858 171.179 173.932 171.07 174.005L170.724 174.232L170.591 174.323C171.114 175.024 172.063 176.425 173.208 178.122C175.556 181.589 179.89 187.987 180.881 188.521C181.326 188.368 182.089 188.05 183.005 187.635C183.273 187.514 183.549 187.385 183.831 187.249C184.459 186.949 185.117 186.616 185.761 186.266C188.596 184.732 189.202 183.912 189.202 183.709C189.18 183.635 189.093 183.417 189.015 183.224C188.304 181.458 187.62 179.517 188.501 178.823C189.15 178.311 190.285 178.686 192.186 180.031C192.725 180.415 194.63 180.562 201.336 177.244C205.663 175.104 210.342 172.344 213.139 170.695C213.986 170.196 214.659 169.799 215.079 169.561C215.281 169.336 215.456 167.951 214.8 166.896C214.061 165.708 212.569 165.452 210.491 166.161ZM188.236 158.836C188.376 158.684 188.566 158.586 188.772 158.559C188.977 158.532 189.186 158.578 189.361 158.689C190.193 159.124 191.374 160.932 190.507 164.951C190.456 165.182 190.416 165.354 190.384 165.482C190.364 165.539 190.348 165.593 190.334 165.643C190.31 165.724 190.293 165.807 190.283 165.891L190.156 165.73C190.117 165.761 190.075 165.79 190.032 165.815C189.996 165.767 189.966 165.716 189.941 165.662C189.877 165.531 189.806 165.356 189.74 165.213C189.606 164.856 189.443 164.511 189.25 164.182C187.612 161.498 187.557 159.563 188.236 158.836ZM190.561 166.459C190.607 166.427 190.646 166.396 190.672 166.374L190.621 166.312H190.698C190.899 166.312 191.002 166.237 191.089 166.016C191.128 165.914 191.161 165.81 191.185 165.704C191.197 165.672 191.211 165.635 191.223 165.599C191.546 164.766 192.522 162.716 194.664 161.621C195.816 161.031 196.615 161.071 196.748 161.329C196.961 161.732 196.164 163.314 192.395 165.313C192.256 165.388 192.121 165.472 191.993 165.565L191.791 165.714C191.736 165.76 191.677 165.802 191.616 165.841C191.653 165.828 191.692 165.823 191.731 165.827C191.77 165.83 191.808 165.843 191.842 165.863L191.485 165.998L191.103 166.143C191.138 166.244 191.189 166.339 191.254 166.425C191.022 166.427 190.791 166.445 190.561 166.459V166.459Z" fill="white"/>
<path d="M158.833 197.029C152.217 194.784 148.7 193.57 146.304 192.286C146.012 192.131 145.738 191.974 145.479 191.815C144.089 190.967 143.063 190.033 141.885 188.722L141.949 188.692L142.279 188.541L142.67 188.358C143.649 187.899 144.588 187.36 145.479 186.747V190.824C145.738 190.997 146.012 191.167 146.304 191.334V186.099C147.389 185.159 147.854 184.273 147.548 183.578C147.385 183.206 146.985 182.92 146.304 182.904V160.958H156.773L156.087 160.133H146.304V148.033C146.018 147.666 145.743 147.311 145.479 146.966V183.004C145.089 183.095 144.709 183.222 144.343 183.383C143.168 183.907 142.114 184.667 141.247 185.616C141.985 182.596 141.357 180.784 140.383 180.063C140.05 179.805 139.635 179.676 139.215 179.701C139.06 179.71 138.906 179.742 138.76 179.795C138.595 179.855 138.438 179.937 138.295 180.039L138.237 180.081C138.093 180.192 137.963 180.319 137.85 180.462C137.387 181.037 137.061 181.958 137.083 183.214C137.083 183.353 137.083 183.494 137.103 183.641C137.123 183.788 137.129 183.937 137.149 184.092C136.489 183.856 135.708 183.812 134.56 183.852L134.158 183.868L133.755 183.89L133.34 183.915C132.845 183.945 132.076 183.979 131.184 184.019C128.858 184.126 125.675 184.271 123.638 184.484C123.4 184.51 122.653 184.549 121.707 184.597L120.61 184.653L120.207 184.676L119.805 184.7C119.231 184.732 118.707 184.766 118.395 184.796C118.431 185.66 118.411 187.369 118.395 189.451C118.347 193.607 118.256 201.271 118.798 202.29C120.694 202.546 122.604 202.68 124.518 202.693C128.589 202.723 129.162 202.163 129.225 202.077C129.253 201.992 129.311 201.716 129.364 201.473C129.74 199.729 130.213 197.815 131.059 197.182C131.244 197.039 131.47 196.959 131.703 196.955C132.003 196.955 132.374 197.098 132.764 197.569C133.018 197.875 133.213 198.559 133.513 199.647C133.692 200.299 133.878 200.971 134.065 201.439C134.284 201.978 135.698 202.898 142.722 202.987C147.373 203.047 152.741 202.729 156.663 202.498C158.571 202.385 160.085 202.296 160.854 202.296C161.116 202.282 162.044 201.463 162.189 200.378C162.318 198.984 161.178 197.835 158.833 197.029ZM146.793 183.917C146.86 184.07 146.751 184.432 146.304 184.941V183.733C146.59 183.753 146.753 183.832 146.793 183.923V183.917ZM144.669 184.144C144.93 184.029 145.199 183.934 145.475 183.858V185.716C144.428 186.516 143.292 187.192 142.09 187.73C141.963 187.79 141.834 187.849 141.7 187.909L141.607 187.951C141.5 188 141.406 188.05 141.317 188.098C141.154 187.911 140.985 187.716 140.814 187.512C140.888 187.4 140.967 187.283 141.055 187.16C141.144 187.037 141.22 186.939 141.311 186.824C142.189 185.664 143.344 184.743 144.669 184.144V184.144ZM137.973 184.023C137.949 183.852 137.933 183.687 137.92 183.526C137.822 182.129 138.176 181.168 138.738 180.739C138.898 180.603 139.1 180.528 139.31 180.525C139.52 180.522 139.724 180.593 139.888 180.725C140.502 181.186 141.17 182.717 140.369 185.708C140.326 185.863 140.282 186.02 140.234 186.182C140.185 186.343 140.139 186.486 140.085 186.645C139.255 185.676 138.659 185.022 138.071 184.593C138.033 184.4 137.999 184.208 137.973 184.025V184.023Z" fill="white"/>
<path d="M167.969 81.9069C169.155 82.4102 170.47 82.9136 171.926 83.4048C174.932 84.4296 179.486 85.6014 182.208 86.302C183.432 86.6161 184.398 86.8658 184.648 86.9523C184.97 87.0737 185.31 87.1417 185.655 87.1537C185.809 87.1639 185.963 87.1386 186.106 87.0796C186.249 87.0206 186.376 86.9295 186.478 86.8134C187.215 85.9134 186.007 83.7753 183.978 80.3587C183.14 78.9493 182.347 77.6145 181.93 76.642C181.08 74.6629 179.514 72.1322 177.678 69.1927C174.267 63.7205 170.027 56.9114 169.49 51.568C169.2 48.6748 167.631 46.3333 165.296 45.2864C163.371 44.4287 161.289 44.5998 159.725 45.7474C158.601 46.5709 157.857 47.8172 157.51 49.3714C156.334 50.3781 155.002 51.8277 155.094 52.5767C155.132 52.8605 155.36 53.1625 155.879 53.1625H156.282H156.926C157.089 53.1625 157.251 53.1625 157.412 53.1625C157.863 57.3422 157.663 60.8837 157.486 64.0164C157.11 70.6242 156.848 75.273 163.123 79.3741C163.293 81.9915 163.635 85.7564 163.754 87.0248C158.672 87.202 153.391 88.5388 150.264 92.3058C149.056 93.7614 148.221 96.2519 147.627 99.7672C147.882 99.9833 148.127 100.205 148.362 100.434C148.933 96.8096 149.733 94.2345 150.9 92.8333C156.018 86.6845 167.394 87.3852 173.307 88.7663C176.768 89.5717 178.08 90.4696 178.139 90.7535L178.189 90.975L178.405 91.0495C179.148 91.3072 181.002 94.0372 182.176 113.776C182.558 120.219 182.78 126.834 182.89 132.055H167.5L167.734 132.468L167.967 132.87H182.552V136.317H169.908L170.14 136.72L170.371 137.133H182.979C183.001 138.804 183.009 140.128 183.009 140.99V160.107H182.55C182.687 160.421 182.8 160.695 182.894 160.932H183.009V161.23C183.428 162.348 183.335 162.543 183.273 162.674L183.214 162.797L183.013 162.905V165.68C183.309 165.573 183.581 165.478 183.839 165.42V141.032C183.839 137.352 183.69 125.272 183.005 113.748C181.866 94.5909 180.136 91.0474 178.864 90.373C178.26 89.2314 175.038 88.3596 173.613 88.0154C171.658 87.5613 169.67 87.2631 167.667 87.1235C167.702 86.5195 167.732 85.9658 167.76 85.4262C167.82 84.2142 167.879 83.1109 167.969 81.9069ZM156.292 52.3592H155.948C156.085 51.9908 156.669 51.3083 157.323 50.664C157.472 50.517 157.625 50.3721 157.778 50.2311C157.931 50.0902 158.104 49.9392 158.261 49.8083C158.512 49.5878 158.781 49.3897 159.067 49.2164C159.195 49.3372 159.324 49.452 159.451 49.5647C159.968 50.0278 160.417 50.4264 160.659 51.0224C160.798 51.3606 160.728 51.5277 160.659 51.6264C160.339 52.0975 159.218 52.2767 158.142 52.3391L157.728 52.3592L157.325 52.3693C156.92 52.3673 156.554 52.3633 156.294 52.3592H156.292ZM164.579 87.0288C164.476 85.9175 164.166 82.525 163.975 79.9339C165.004 80.5346 166.066 81.077 167.156 81.5586C167.051 82.8854 166.989 84.0672 166.921 85.3839C166.89 85.9215 166.862 86.4792 166.828 87.0751C166.107 87.0349 165.344 87.0188 164.581 87.0288H164.579Z" fill="white"/>
<path d="M22.8746 58.5301C22.85 58.6337 22.8312 58.7385 22.8182 58.8442C22.8182 59.6817 24.1088 59.4281 23.8672 58.6549C23.7001 58.1194 23.0135 58.2503 22.8746 58.5301Z" fill="white"/>
<path d="M37.8075 48.8057C37.7825 48.9092 37.7636 49.0141 37.7511 49.1198C37.7511 49.9574 39.0396 49.7037 38.8 48.9306C38.6329 48.395 37.9464 48.5259 37.8075 48.8057Z" fill="white"/>
<path d="M90.2226 53.4223C90.1961 53.5256 90.1766 53.6305 90.1642 53.7364C90.1642 54.5739 91.4548 54.3203 91.2132 53.5492C91.0461 53.0116 90.3615 53.1425 90.2226 53.4223Z" fill="white"/>
<path d="M75.5072 76.7609C75.4824 76.8651 75.4635 76.9706 75.4508 77.077C75.4508 77.9125 76.7393 77.6588 76.4997 76.8877C76.3366 76.3522 75.6501 76.483 75.5072 76.7609Z" fill="white"/>
<path d="M88.8374 87.8805C88.8108 87.9844 88.7912 88.09 88.7791 88.1966C88.7791 89.0342 90.0696 88.7785 89.828 88.0074C89.6609 87.4718 88.9744 87.6027 88.8374 87.8805Z" fill="white"/>
<path d="M57.5684 69.5028C57.4013 68.9673 56.7147 69.1001 56.5778 69.378C56.5513 69.4812 56.5318 69.5862 56.5194 69.6921C56.5194 70.5296 57.81 70.2759 57.5684 69.5028Z" fill="white"/>
<path d="M10.8228 71.8785C10.7961 71.9824 10.7766 72.088 10.7644 72.1946C10.7644 73.0302 12.055 72.7765 11.8134 72.0054C11.6462 71.4698 10.9597 71.5987 10.8228 71.8785Z" fill="white"/>
<path d="M33.3782 79.7688C33.2111 79.2312 32.5245 79.3661 32.3856 79.6419C32.3608 79.7461 32.342 79.8517 32.3292 79.958C32.3292 80.7936 33.6298 80.5399 33.3782 79.7688Z" fill="white"/>
<path d="M58.9213 58.9409C58.7542 58.4053 58.0677 58.5382 57.9288 58.816C57.9039 58.9196 57.8851 59.0244 57.8724 59.1301C57.8724 59.9677 59.1629 59.72 58.9213 58.9409Z" fill="white"/>
<path d="M62.4346 89.8596C62.2675 89.3241 61.5809 89.457 61.444 89.7348C61.4175 89.8381 61.398 89.943 61.3856 90.0489C61.3856 90.8864 62.6762 90.6327 62.4346 89.8596Z" fill="white"/>
<path d="M27.6502 84.2162C27.4831 83.6787 26.7966 83.8136 26.6576 84.0894C26.633 84.1929 26.6142 84.2978 26.6013 84.4035C26.6013 85.241 27.8898 84.9873 27.6502 84.2162Z" fill="white"/>
<path d="M32.8406 57.5295V57.5839C32.5748 57.9584 32.7681 58.3671 32.9674 58.359C34.7633 58.2825 33.1003 56.6618 32.8406 57.5295Z" fill="white"/>
<path d="M110.076 67.2881C111.876 67.2116 110.213 65.5908 109.953 66.4586V66.513C109.683 66.8874 109.877 67.2962 110.076 67.2881Z" fill="white"/>
<path d="M25.655 74.3267V74.3831C25.3892 74.7576 25.5805 75.1663 25.7798 75.1562C27.5777 75.0797 25.9147 73.459 25.655 74.3267Z" fill="white"/>
<path d="M93.1258 70.0504C94.9237 69.9739 93.2607 68.3532 93.001 69.2209V69.2753C92.7332 69.6498 92.9265 70.0585 93.1258 70.0504Z" fill="white"/>
<path d="M72.7831 89.1429V89.1972C72.5174 89.5717 72.7086 89.9804 72.91 89.9724C74.7018 89.8958 73.0428 88.2751 72.7831 89.1429Z" fill="white"/>
<path d="M29.6374 65.9211V65.9755C29.3716 66.3499 29.5629 66.7586 29.7642 66.7506C31.5601 66.6721 29.8971 65.0513 29.6374 65.9211Z" fill="white"/>
<path d="M76.7655 80.7351V80.7895C76.4997 81.164 76.693 81.5727 76.8923 81.5646C78.6882 81.4881 77.0252 79.8674 76.7655 80.7351Z" fill="white"/>
<path d="M21.0948 50.4345V50.4888C20.829 50.8633 21.0223 51.272 21.2216 51.264C23.0155 51.1875 21.3485 49.5667 21.0948 50.4345Z" fill="white"/>
<path d="M112.224 73.767C114.024 73.6905 112.361 72.0698 112.101 72.9375V72.9939C111.834 73.3684 112.025 73.7771 112.224 73.767Z" fill="white"/>
<path d="M36.0277 40.7101V40.7645C35.7619 41.139 35.9552 41.5477 36.1545 41.5396C37.9484 41.4631 36.2854 39.8424 36.0277 40.7101Z" fill="white"/>
<path d="M54.796 61.2823V61.3306C54.5302 61.7051 54.7215 62.1138 54.9228 62.1058C56.7187 62.0353 55.0557 60.4146 54.796 61.2823Z" fill="white"/>
<path d="M38.1216 84.327C39.9195 84.2505 38.2565 82.6297 37.9967 83.4975V83.5518C37.729 83.9263 37.9223 84.335 38.1216 84.327Z" fill="white"/>
<path d="M20.2814 81.0835V81.1378C20.0157 81.5123 20.2069 81.921 20.4082 81.913C22.2041 81.8365 20.5431 80.2157 20.2814 81.0835Z" fill="white"/>
<path d="M7.63969 80.558C9.4376 80.4795 7.77459 78.8608 7.51487 79.7285V79.7829C7.25515 80.1574 7.43836 80.5661 7.63969 80.558Z" fill="white"/>
<path d="M51.1297 63.6239V63.6782C50.8619 64.0527 51.0552 64.4614 51.2545 64.4534C53.0504 64.3769 51.3894 62.7561 51.1297 63.6239Z" fill="white"/>
<path d="M54.643 94.5507V94.6051C54.3772 94.9795 54.5685 95.3882 54.7698 95.3802C56.5657 95.2956 54.9027 93.6749 54.643 94.5507Z" fill="white"/>
<path d="M6.82831 66.8351V66.8915C6.56255 67.266 6.75382 67.6727 6.95515 67.6646C8.75105 67.5881 7.08803 65.9613 6.82831 66.8351Z" fill="white"/>
<path d="M50.4432 50.7304V50.7868C50.1754 51.1613 50.3687 51.57 50.568 51.5599C52.3659 51.4834 50.7029 49.8546 50.4432 50.7304Z" fill="white"/>
<path d="M53.9645 81.6513V81.7056C53.6987 82.0801 53.89 82.4888 54.0913 82.4807C55.8792 82.4022 54.2161 80.7815 53.9645 81.6513Z" fill="white"/>
<path d="M1.2373 75.424L1.28965 75.4421C1.58158 75.7965 2.02653 75.7179 2.07082 75.5226C2.46946 73.761 0.468204 74.9388 1.2373 75.424Z" fill="white"/>
<path d="M44.8521 59.3173L44.9045 59.3354C45.1964 59.6898 45.6394 59.6113 45.6857 59.418C46.0843 57.6563 44.083 58.8341 44.8521 59.3173Z" fill="white"/>
<path d="M83.7457 80.9204C84.0376 81.2767 84.4826 81.1982 84.5269 81.0029C84.9295 79.2473 82.9162 80.4251 83.6933 80.9043L83.7457 80.9204Z" fill="white"/>
<path d="M103.001 79.0017L103.054 79.0178C103.346 79.3741 103.791 79.2956 103.835 79.1003C104.233 77.3447 102.232 78.5225 103.001 79.0017Z" fill="white"/>
<path d="M28.3005 50.5352C27.775 50.6439 28.075 52.0814 28.979 51.3405C29.273 51.103 29.273 50.3339 28.3005 50.5352Z" fill="white"/>
<path d="M106.09 60.2716C106.384 60.032 106.386 59.265 105.413 59.4663C104.888 59.573 105.186 61.0105 106.09 60.2716Z" fill="white"/>
<path d="M80.47 50.3399C79.9445 50.4486 80.2425 51.8881 81.1465 51.1452C81.4404 50.9076 81.4425 50.1386 80.47 50.3399Z" fill="white"/>
<path d="M76.1112 66.1627C76.4051 65.9211 76.4051 65.156 75.4327 65.3574C74.9032 65.458 75.2031 66.8976 76.1112 66.1627Z" fill="white"/>
<path d="M12.816 58.0852C12.2905 58.1959 12.5885 59.6334 13.4925 58.8905C13.7864 58.655 13.7884 57.8859 12.816 58.0852Z" fill="white"/>
<path d="M115.246 78.4098C115.54 78.1702 115.542 77.4031 114.57 77.6044C114.044 77.7091 114.342 79.1486 115.246 78.4098Z" fill="white"/>
<path d="M76.5138 42.5241C75.9883 42.6328 76.2863 44.0723 77.1903 43.3294C77.4842 43.0919 77.4863 42.3228 76.5138 42.5241Z" fill="white"/>
<path d="M84.4363 94.2809C84.7302 94.0393 84.7322 93.2742 83.7598 93.4755C83.2343 93.5802 83.5323 95.0177 84.4363 94.2809Z" fill="white"/>
<path d="M60.6206 73.7107C60.9145 73.4691 60.9165 72.704 59.9441 72.9053C59.4186 73.008 59.7166 74.4496 60.6206 73.7107Z" fill="white"/>
<path d="M46.5151 68.935C45.9897 69.0438 46.2897 70.4813 47.1936 69.7404C47.4896 69.5028 47.4896 68.7337 46.5151 68.935Z" fill="white"/>
<path d="M21.1149 67.3324C20.5895 67.4411 20.8874 68.8806 21.7914 68.1377C22.0854 67.9001 22.0874 67.131 21.1149 67.3324Z" fill="white"/>
<path d="M34.4714 47.2998C34.7653 47.0602 34.7653 46.2931 33.7949 46.4944C33.2674 46.5991 33.5674 48.0427 34.4714 47.2998Z" fill="white"/>
<path d="M89.1394 63.034C89.4334 62.7944 89.4334 62.0273 88.4629 62.2286C87.9355 62.3373 88.2354 63.7729 89.1394 63.034Z" fill="white"/>
<path d="M68.9195 82.9559C69.2135 82.7163 69.2155 81.9492 68.2431 82.1506C67.7176 82.2553 68.0156 83.6948 68.9195 82.9559Z" fill="white"/>
<path d="M37.1491 74.0147C36.6236 74.1234 36.9236 75.5629 37.8276 74.82C38.1216 74.5885 38.1216 73.8133 37.1491 74.0147Z" fill="white"/>
<path d="M105.174 69.7202C105.468 69.4807 105.47 68.7136 104.497 68.9149C103.972 69.0196 104.27 70.4591 105.174 69.7202Z" fill="white"/>
</svg>
