<svg width="225" height="177" viewBox="0 0 225 177" fill="none" xmlns="http://www.w3.org/2000/svg">
<path d="M42.4652 54.6729L35.9446 55.7594L36.1027 56.7085L42.6234 55.622L42.4652 54.6729Z" fill="white"/>
<path d="M43.9367 58.6485L39.0874 63.1721L39.7437 63.8757L44.593 59.352L43.9367 58.6485Z" fill="white"/>
<path d="M39.7612 50.4265L39.4993 51.3523L43.0985 52.3708L43.3605 51.445L39.7612 50.4265Z" fill="white"/>
<path d="M46.6256 61.022L45.0676 66.4733L45.9927 66.7377L47.5507 61.2864L46.6256 61.022Z" fill="white"/>
<path d="M57.3575 168.886C57.1206 168.729 56.899 168.551 56.6958 168.353C56.677 166.173 55.5083 146.167 54.0651 129.924L59.8332 131.405L60.0679 130.466L53.9666 128.898C53.9024 128.212 53.8399 127.532 53.7789 126.859H60.2744V125.897H53.6967C53.6451 125.371 53.5958 124.848 53.5442 124.336L59.9952 122.56L59.73 121.64L53.4362 123.372C53.1194 120.251 52.7956 117.432 52.4741 115.121C51.9672 111.488 50.761 109.144 49.2427 108.848C48.7382 108.75 47.7643 108.808 46.8961 110.31C45.9574 111.937 45.4646 113.009 45.1384 113.718C45.0263 113.979 44.8985 114.234 44.7559 114.48C43.9252 114.494 42.7659 114.445 41.1843 114.377L40.1494 114.333L40.1658 114.424C39.8344 114.481 39.5062 114.555 39.1826 114.647C39.0254 114.692 38.8705 114.741 38.7132 114.792C36.9603 115.393 35.5617 116.47 34.9774 117.735L34.102 117.332C34.8178 115.783 36.4487 114.516 38.5044 113.842C38.6593 113.793 38.8142 113.746 38.9737 113.701C39.1333 113.657 39.2858 113.622 39.4431 113.586C39.4172 113.392 39.3938 113.19 39.3727 113.002C39.1521 111.125 38.8517 108.543 37.2607 108.137C35.733 107.76 33.6468 109.599 30.69 113.92C28.578 117.017 20.834 129.757 14.2798 142.906C11.9566 147.561 10.0354 151.739 8.51634 155.439L8.63132 155.456C8.58298 155.816 8.57119 156.181 8.59613 156.544C8.61549 156.864 8.66022 157.182 8.72989 157.495C9.01582 158.769 9.61419 159.952 10.4711 160.937C11.1965 161.774 12.0947 162.444 13.1038 162.901C14.113 163.357 15.2091 163.59 16.3167 163.582V164.544C15.0712 164.553 13.8387 164.291 12.7043 163.777C11.5699 163.263 10.5606 162.508 9.74599 161.566C9.07522 160.792 8.5426 159.907 8.17138 158.952C8.13383 158.858 8.10098 158.762 8.06813 158.666C8.01885 158.527 7.97426 158.387 7.93202 158.243C7.85026 157.966 7.78445 157.684 7.7349 157.399C7.68614 157.123 7.65324 156.845 7.63634 156.566C7.46792 155.125 7.47974 153.669 7.67154 152.231C8.4389 146.153 11.9495 139.379 15.3475 132.829C18.9097 125.958 22.2748 119.467 22.7606 113.659C23.0187 110.564 21.5873 109.017 20.0361 108.855C18.2245 108.67 16.1547 110.301 15.723 113.783C15.0377 119.312 11.8486 124.986 8.47175 130.994C5.33426 136.579 2.09117 142.354 0.697245 148.383C-0.891448 155.261 0.227908 161.463 4.12572 167.346C4.26183 167.553 4.40028 167.757 4.53639 167.956C4.02951 170.899 4.14997 173.08 4.89778 174.499C5.60178 175.822 6.81031 176.486 8.52572 176.482C8.90823 176.482 42.3177 176.482 55.3018 176.482L54.5462 176.4C54.5603 176.278 54.5673 176.144 54.572 176.001C54.5767 175.857 54.572 175.689 54.572 175.531C54.5298 174.271 54.1707 172.56 53.1969 171.389C52.913 171.032 52.5576 170.738 52.1536 170.525C51.7496 170.312 51.3057 170.186 50.8502 170.155L50.3105 170.113L50.4137 169.582C50.4325 169.486 52.277 159.832 50.517 153.745C49.5337 150.34 48.4378 148.732 46.8585 148.371C46.4091 148.268 45.9436 148.257 45.4897 148.337C45.0358 148.418 44.6027 148.589 44.2162 148.84C43.186 149.502 42.475 150.668 42.1535 152.212L41.2148 152.018C41.6841 149.739 42.8246 148.592 43.6976 148.028C44.1914 147.707 44.7449 147.488 45.325 147.385C45.9051 147.282 46.5 147.296 47.0744 147.428C49.5502 147.993 50.6719 150.8 51.4439 153.473C53.0537 159.044 51.8194 167.154 51.4439 169.261C52.427 169.452 53.3098 169.987 53.9337 170.77C55.0202 172.075 55.4943 173.978 55.5365 175.527C55.5365 175.693 55.5365 175.853 55.5365 175.996C55.5365 176.139 55.5201 176.324 55.506 176.465C58.3971 176.465 60.2275 176.465 60.38 176.479L60.8494 176.5L60.8799 176.031C61.1826 171.657 58.6928 169.852 57.3575 168.886Z" fill="white"/>
<path d="M143.736 70.2901C143.614 70.1778 143.51 70.0482 143.426 69.9053L143.412 69.8842C143.355 69.7922 143.318 69.6895 143.303 69.5825C143.287 69.4755 143.294 69.3665 143.323 69.2623C143.337 69.2167 143.358 69.1733 143.384 69.1332L142.579 68.6099C142.427 68.8555 142.343 69.1366 142.335 69.425C142.327 69.7133 142.395 69.9988 142.532 70.2526C142.544 70.2806 142.557 70.308 142.572 70.3347C142.639 70.4583 142.717 70.5754 142.806 70.6844C142.907 70.8118 143.019 70.9297 143.142 71.0364C143.816 71.6147 144.677 71.9297 145.566 71.9234H145.702V70.9613H145.566C144.893 70.9772 144.239 70.7373 143.736 70.2901V70.2901Z" fill="white"/>
<path d="M146.401 59.235C147.206 59.7935 148.208 60.4857 149.773 59.5001C150.74 58.8877 151.238 58.7961 151.555 58.9088C151.707 58.9676 151.842 59.0626 151.949 59.1857L151.996 59.235C152.088 59.3386 152.19 59.4329 152.301 59.5166C152.48 59.658 152.707 59.7259 152.934 59.7066L152.859 58.8149V58.7492C152.871 58.7466 152.883 58.7466 152.895 58.7492C152.824 58.6951 152.758 58.6337 152.7 58.5662L152.557 58.4254C152.442 58.3134 152.315 58.2143 152.179 58.1297C151.609 57.7824 150.771 57.7261 149.267 58.6811C148.241 59.3288 147.701 58.9557 146.955 58.4465C145.674 57.5594 144.435 57.0244 142.222 59.4485L142.926 60.0985C144.752 58.0945 145.444 58.5732 146.401 59.235Z" fill="white"/>
<path d="M157.679 74.1457C157.173 74.9882 156.799 75.955 158.229 77.6657L158.968 77.0509C157.855 75.718 158.158 75.2182 158.498 74.6385C158.984 73.8336 159.249 73.0686 157.581 71.8741L157.02 72.6556C158.109 73.4323 157.992 73.6271 157.679 74.1457Z" fill="white"/>
<path d="M150.445 81.3406C150.431 81.4094 150.396 81.4719 150.344 81.5189C150.159 81.7122 149.907 81.8266 149.64 81.838V82.8002C149.904 82.7927 150.165 82.7331 150.407 82.6248C150.648 82.5165 150.866 82.3615 151.048 82.1689C151.167 82.05 151.259 81.9076 151.32 81.7508C151.38 81.594 151.408 81.4263 151.4 81.2584L150.445 81.3406Z" fill="white"/>
<path d="M141.199 80.9252C141.199 81.0073 141.199 81.0871 141.199 81.1599H142.161C142.161 81.1387 142.161 81.1129 142.161 81.0918C142.133 79.7425 141.286 77.5014 139.767 76.8467L139.385 77.729C140.349 78.1467 141.107 79.7237 141.199 80.9252Z" fill="white"/>
<path d="M155.927 67.622C156.246 67.1148 156.618 66.6428 157.037 66.214L156.802 65.9793L156.356 65.5334C155.64 66.2707 155.038 67.1116 154.573 68.028L155.427 68.4738C155.584 68.1781 155.753 67.8918 155.927 67.622Z" fill="white"/>
<path d="M165.29 53.7368H165.43L165.341 52.7723C165.229 52.7796 165.117 52.7578 165.015 52.7089C164.868 52.6399 164.733 52.5471 164.616 52.4344C164.493 52.3192 164.376 52.1969 164.266 52.0683C164.133 51.9134 163.999 51.7445 163.861 51.5708L163.764 51.4511C163.624 51.2751 163.476 51.0921 163.318 50.9184C163.147 50.7237 162.96 50.5432 162.76 50.3787C162.525 50.1676 162.244 50.0138 161.939 49.9295C161.635 49.8452 161.315 49.8327 161.005 49.8929L161.077 50.2473L161.174 50.7307L161.197 50.834C161.622 50.7471 161.983 50.9396 162.37 51.3033C162.635 51.5727 162.882 51.858 163.112 52.1575C163.333 52.4344 163.553 52.7113 163.79 52.9553C163.905 53.0752 164.027 53.1873 164.156 53.2909C164.283 53.391 164.419 53.4783 164.562 53.5514C164.787 53.6685 165.036 53.732 165.29 53.7368V53.7368Z" fill="white"/>
<path d="M172.656 62.2974C172.656 62.3631 172.656 62.4288 172.656 62.4875H173.618C173.618 62.4405 173.618 62.3889 173.618 62.3349C173.642 62.0978 173.617 61.8583 173.545 61.6309C172.41 58.6929 172.82 58.4465 173.092 58.2846C173.975 57.7589 173.994 57.0174 173.165 55.1049L172.283 55.4874C172.752 56.5621 172.823 57.0315 172.804 57.238C172.804 57.3342 172.804 57.3412 172.6 57.4586C171.682 58.003 171.438 58.8525 172.649 61.9759C172.662 62.0826 172.664 62.1903 172.656 62.2974V62.2974Z" fill="white"/>
<path d="M166.045 40.3115C166.766 41.5622 167.754 43.2753 169.331 43.2753V42.3132C168.319 42.3132 167.493 40.877 166.89 39.8304C166.745 39.5793 166.606 39.3399 166.477 39.1381L165.667 39.6567C165.782 39.8421 165.914 40.0697 166.045 40.3115Z" fill="white"/>
<path d="M167.88 70.4756C167.704 70.5587 167.52 70.624 167.331 70.6703L167.517 71.609C167.775 71.5516 168.026 71.4659 168.265 71.3532C168.779 71.1185 169.166 70.959 170.046 71.5879C170.168 71.6739 170.302 71.7772 170.448 71.8976C170.51 71.9474 170.575 71.9936 170.642 72.0361C170.802 72.1396 170.98 72.2128 171.166 72.252C171.256 72.2714 171.348 72.2816 171.44 72.2825C171.782 72.2773 172.112 72.1593 172.379 71.9469C172.98 71.4776 173.419 70.5389 173.113 69.8607C173.008 69.6261 172.658 69.1004 171.687 69.2881L171.87 70.2268C172.104 70.1846 172.219 70.2127 172.233 70.2456C172.302 70.3981 172.163 70.8933 171.795 71.1842C171.694 71.2755 171.562 71.3241 171.426 71.3197C171.29 71.3153 171.162 71.2583 171.067 71.1608L170.987 71.0998C170.808 70.9524 170.62 70.8161 170.424 70.6914C170.238 70.5701 170.042 70.4656 169.838 70.3793C169.04 70.0438 168.465 70.2198 167.88 70.4756Z" fill="white"/>
<path d="M180.693 67.1527C180.729 67.3159 180.742 67.4833 180.733 67.6501L181.695 67.629C181.695 67.1996 181.669 66.7209 181.346 66.4557C180.693 65.8995 180.792 65.7775 180.987 65.5311C181.095 65.4366 181.178 65.3172 181.23 65.1833C181.282 65.0494 181.3 64.9049 181.284 64.7623C181.267 64.6197 181.217 64.4831 181.136 64.3644C181.055 64.2457 180.947 64.1484 180.82 64.0809L180.25 64.8576L180.276 64.8764C180.261 64.8975 180.245 64.9163 180.233 64.9327C179.806 65.4584 179.527 66.1436 180.693 67.1527Z" fill="white"/>
<path d="M174.559 49.9985V49.0364C173.829 49.0364 173.672 48.9191 173.639 48.8674C173.627 48.851 173.531 48.6797 173.782 48.0696L172.89 47.7035C172.696 48.1728 172.48 48.8768 172.839 49.4048C173.198 49.9328 173.871 49.9985 174.559 49.9985Z" fill="white"/>
<path d="M164.372 59.296V60.2605C164.959 60.2605 165.37 60.4435 165.56 60.7932C165.61 60.8758 165.642 60.9682 165.653 61.0641C165.664 61.1601 165.655 61.2574 165.625 61.3494C165.648 61.3225 165.678 61.3029 165.712 61.293L166.02 62.2035C166.461 62.0557 166.7 61.5183 166.597 60.8964C166.477 60.1526 165.811 59.296 164.372 59.296Z" fill="white"/>
<path d="M156.943 43.5358C156.871 43.7321 156.814 43.9337 156.774 44.1388C156.642 44.6481 156.422 45.5023 156.304 45.8285L157.212 46.1429C157.337 45.7815 157.555 44.9367 157.698 44.3782C157.762 44.1435 157.809 43.9535 157.825 43.9089L157.37 43.7517L156.943 43.5358Z" fill="white"/>
<path d="M147.868 52.4414V51.9368L147.96 51.4886L147.739 51.4417C147.115 51.3033 146.622 51.207 146.244 51.1202C145.7 51.0076 145.39 50.9512 145.263 50.9395L145.242 51.1742L145.176 51.9063C145.338 51.9204 146.131 52.0847 147.523 52.3898C147.636 52.4205 147.751 52.4378 147.868 52.4414V52.4414Z" fill="white"/>
<path d="M161.92 23.0987H162.882C162.889 22.8734 162.913 22.649 162.955 22.4275C163.1 21.7837 163.065 21.1121 162.854 20.4868L161.95 20.8224C162.102 21.294 162.12 21.7985 162.002 22.2797C161.954 22.5502 161.926 22.824 161.92 23.0987V23.0987Z" fill="white"/>
<path d="M129.97 35.7143L129.982 35.7355L130.416 35.5266L130.885 35.4163C130.872 35.3629 130.852 35.3115 130.824 35.2638C130.43 34.5152 130.458 34.1609 130.498 34.0905C130.514 34.0646 130.613 34.0271 130.81 34.0341L130.841 33.072C130.158 33.0532 129.834 33.3348 129.681 33.5812C129.381 34.0646 129.477 34.7804 129.97 35.7143Z" fill="white"/>
<path d="M158.991 31.0445L158.48 31.8588C158.92 32.1307 159.285 32.5102 159.538 32.9617C159.644 33.1237 159.773 33.3067 159.911 33.5038L160.683 32.9312C160.552 32.7552 160.449 32.591 160.341 32.4337C160.013 31.8661 159.549 31.3888 158.991 31.0445V31.0445Z" fill="white"/>
<path d="M218.435 142.302C215.262 141.448 213.315 139.721 211.435 138.078C209.952 136.767 208.553 135.53 206.65 134.758C203.975 133.674 201.072 134.472 198.268 135.246C196.773 135.657 195.363 136.046 194.044 136.138L193.546 136.173L193.851 138.973C193.701 138.973 193.556 138.973 193.413 138.973C191.031 139.062 184.293 139.501 177.847 140.094C170.439 140.772 167.374 141.282 166.055 141.636C166.123 141.303 166.205 140.89 166.29 140.402C166.524 139.125 166.881 137.267 167.313 134.882C168.099 130.529 169.021 125.287 169.695 121.457C169.77 121.023 169.843 120.612 169.911 120.22L170.915 122.245C172.271 124.977 173.442 127.333 173.588 127.856L173.722 128.326L174.191 128.183C176.27 127.547 178.906 126.279 181.752 124.695C188.907 120.91 197.902 114.605 202.844 111.148C203.977 110.355 204.871 109.74 205.413 109.365C205.819 109.095 206.481 108.661 202.987 101.151C203.501 99.9991 201.835 96.8452 196.733 89.0777L196.029 88.0146L195.635 88.2493L194.56 88.8618L194.541 88.8336L194.149 89.0683L194.006 89.1504C191.592 87.076 187.114 80.869 182.038 73.8337C181.043 72.4539 180.027 71.0459 178.988 69.6238C178.518 68.5663 178.056 67.5345 177.601 66.5286C167.996 45.4086 160.691 35.3789 154.603 34.9659C151.008 34.7312 148.366 37.8523 146.432 40.8326C145.698 39.4433 144.743 37.6223 143.874 35.7567C144.578 35.2874 145.36 34.7711 146.205 34.1985C150.715 31.1338 155 27.9588 155.045 27.9283L155.181 27.825L155.223 27.6584C156.913 21.0126 151.121 6.99129 140.793 2.2651C136.175 0.153101 131.932 -0.475804 127.821 0.352569C123.975 1.12697 120.117 3.21316 116.022 6.73551C113.441 8.95076 111.12 13.1536 111.725 17.5513C112.042 19.8393 113.281 22.9205 117.219 25.2789C117.31 26.0345 117.472 27.0788 117.667 28.3295C118.408 33.1003 119.791 41.9801 118.247 43.956C118.161 44.0535 118.114 44.1785 118.114 44.308C118.114 44.4374 118.161 44.5625 118.247 44.66C118.347 44.775 118.458 44.8947 119.08 44.8947C119.797 44.8726 120.512 44.8012 121.22 44.6811C122.862 44.4464 124.878 44.0311 126.929 43.5312C128.14 43.2379 129.745 42.8272 131.505 42.2734C131.734 42.557 131.941 42.8565 132.127 43.1699C132.378 43.5711 132.831 44.43 133.347 45.4203C133.725 46.1454 134.051 46.7696 134.349 47.3117C132.25 47.8771 130.414 49.1578 129.159 50.9326C128.794 51.4661 128.492 52.0402 128.26 52.6433C127.352 54.1921 126.312 56.1633 125.16 58.341C121.572 65.1464 116.66 74.4439 112.41 76.4315C109.714 77.6682 96.7088 79.1419 86.2661 80.3152C76.5275 81.4111 73.4815 81.8101 72.4842 82.1668C72.2084 81.9951 71.9197 81.8452 71.6206 81.7185C70.5388 81.2281 69.1894 80.618 68.3681 77.6236C68.2758 77.2857 68.189 76.9619 68.1076 76.6521C67.4998 74.3876 67.061 72.7519 65.8337 71.3791C65.5333 71.0436 64.9678 71.0694 64.3905 71.4448C63.4237 72.0714 62.6211 73.5263 63.5363 75.5679C64.1535 76.9431 64.0502 77.7855 63.9212 78.8533C63.886 79.1419 63.8508 79.4423 63.8273 79.7661C63.8132 79.9491 63.5739 80.2355 63.2594 80.5663C62.837 79.8623 62.4686 79.2686 62.1541 78.7876C61.8397 78.3065 61.5862 77.8982 61.3258 77.4852C59.256 74.1998 57.8879 72.0292 54.0511 73.0265C53.2743 73.226 51.2069 73.7587 49.5924 74.0731C48.337 74.3078 47.532 74.8334 47.2012 75.6055C46.6286 76.9501 47.6095 78.6561 48.6608 80.2824C49.5056 81.5895 50.625 83.434 51.857 85.4873C51.6744 85.9581 51.6107 86.4667 51.6716 86.968C51.719 87.4073 51.903 87.8206 52.1977 88.1498C52.4924 88.479 52.8829 88.7075 53.3142 88.8031V88.8031H53.3307L53.4151 88.8289C53.4363 88.9181 53.4597 89.0495 53.4785 89.1528C53.624 89.96 53.9126 91.5534 55.8674 92.1823L56.2617 92.8324C56.3226 93.2417 56.5334 93.6138 56.853 93.8766L56.9445 93.947C57.7776 95.2987 58.5027 96.4439 59.0331 97.2019C59.9412 98.5019 61.5182 100.762 64.1793 100.762C64.6499 100.759 65.118 100.693 65.5709 100.565C66.235 100.384 67.1431 100.227 67.9434 100.095C68.5966 99.9971 69.2443 99.8656 69.8841 99.701C70.804 99.4194 71.8177 99.0393 72.1885 98.0701C72.5288 97.1807 72.2636 95.9769 71.3366 94.245C72.869 94.0409 74.1268 93.8344 74.5352 93.7757C79.137 94.1371 89.8847 94.7613 100.32 94.7613H100.623C96.399 98.9313 92.5599 103.097 92.5059 103.155L92.2196 103.47L92.3628 103.639C91.3959 104.453 90.5652 105.061 89.9457 105.251L89.7814 105.303C87.7474 105.953 85.6659 106.444 83.5557 106.772C79.7401 107.363 79.0595 107.851 77.4802 111.125C77.3347 111.425 76.9217 112.88 76.687 113.72C76.6331 113.919 76.5814 114.103 76.5345 114.269C76.1585 114.215 75.7776 114.201 75.3987 114.229C74.8667 114.276 74.3311 114.259 73.803 114.18C72.4197 113.997 71.0152 114.055 69.6517 114.351C69.1854 114.42 68.7151 114.459 68.2437 114.466C66.6597 114.537 64.6885 114.626 64.1183 116.078C63.9933 116.32 63.8563 116.555 63.7076 116.782C62.9027 118.099 62.5789 118.723 62.8487 119.171C62.9061 119.263 62.9866 119.338 63.0821 119.389C63.1777 119.441 63.2849 119.466 63.3932 119.462H63.4425C64.1001 119.402 64.7496 119.274 65.3808 119.08C66.3969 118.803 67.2746 118.564 68.3986 118.941C68.8351 119.087 69.7151 118.972 71.5079 118.707C72.097 118.622 72.8338 118.517 73.5965 118.427C73.4651 118.662 73.3102 118.92 73.1272 119.221C72.5945 120.101 72.5945 121.38 73.1272 122.478C73.4161 123.068 73.8513 123.575 74.3915 123.95C74.9317 124.324 75.5587 124.554 76.213 124.618C77.9402 124.82 80.8641 123.445 82.3988 122.63C82.3918 122.964 82.4606 123.296 82.6 123.599C82.7394 123.903 82.9458 124.171 83.2037 124.383C84.248 125.23 85.5504 124.747 86.2403 124.489H86.2755C86.3883 124.805 86.6083 125.072 86.8974 125.242C87.5404 125.606 88.3054 125.331 88.932 125.111C89.1042 125.044 89.2806 124.988 89.46 124.944C89.5676 125.105 89.709 125.241 89.8743 125.342C90.0397 125.443 90.225 125.506 90.4174 125.528C90.5022 125.54 90.5876 125.545 90.6732 125.545C92.1234 125.545 94.2753 123.998 95.7349 122.478C96.0893 122.109 98.3585 118.355 99.682 116.142C100.855 114.194 101.632 112.875 102.158 111.974C102.29 111.927 102.409 111.851 102.507 111.751C102.831 111.423 104.472 109.963 106.99 107.745C108.264 112.249 109.773 117.522 111.27 122.703C113.168 129.274 114.811 134.864 116.02 138.895C116.724 141.221 117.207 142.826 117.564 143.938C117.432 149.281 116.123 160.111 108.074 165.213C107.913 165.336 107.763 165.472 107.625 165.621C106.38 166.859 105.047 168.005 103.636 169.05C101.639 170.472 100.865 171.467 101.125 172.276C101.414 173.18 102.836 173.283 103.88 173.283C104.406 173.283 105.028 173.283 105.72 173.302C106.6 173.314 107.579 173.328 108.613 173.328C113.617 173.328 119.877 173.018 122.025 170.746C122.259 170.498 122.797 169.888 123.536 169.045C125.179 167.168 128.76 163.089 130.175 161.86C130.21 164.676 130.393 172.29 130.409 172.528L130.435 172.966L133.474 173.058L133.57 172.685C133.735 172.044 133.737 169.984 133.72 167.144C133.72 166.562 133.72 166.004 133.72 165.502C133.72 162.097 134.894 158.891 136.015 155.791C136.816 153.595 137.571 151.518 137.811 149.579C138.151 146.813 137.006 145.208 135.793 143.509C135.089 142.509 134.342 141.474 133.878 140.134L133.744 139.747L131.256 140.155C130.365 134.307 127.783 106.884 128.044 102.609C129.144 102.843 131.944 103.439 135.553 104.143C136.276 108.935 136.727 112.03 136.745 112.134L136.806 112.551H136.903C137.567 116.97 138.494 122.957 139.683 130.604C140.486 135.767 141.119 139.824 141.227 140.662L141.265 140.965C142.774 152.762 143.769 160.555 148.382 163.563C149.776 164.474 151.487 164.927 153.594 164.927C155.605 164.927 157.973 164.514 160.77 163.685C166.529 161.982 184.324 155.472 195.412 151.405H195.433C196.883 152.067 198.219 152.632 199.397 153.13C205.765 155.831 208.438 156.962 209.764 164.187C209.63 164.324 209.396 164.549 209.168 164.769C207.901 165.987 205.782 168.024 205.179 169.573C204.261 171.875 204.102 172.366 204.346 172.79C204.418 172.901 204.515 172.994 204.63 173.06C204.744 173.127 204.873 173.165 205.005 173.173C205.709 173.285 208.422 173.393 211.144 173.393C211.571 173.393 211.996 173.393 212.416 173.393C219.038 173.304 219.181 172.617 219.275 172.161L219.665 170.265C220.876 164.42 221.329 162.233 221.049 160.367C220.179 154.5 216.539 148.944 214.791 146.268C214.678 146.097 214.556 145.926 214.462 145.764C215.849 146.043 217.982 146.393 219.32 146.606C224.013 147.35 224.013 147.35 224.213 147.094L224.41 146.86L224.285 146.604C224.248 146.369 224.426 145.473 224.67 144.649L224.788 144.26L224.421 144.081C224.116 143.924 220.648 142.899 218.435 142.302ZM148.917 162.751C144.677 159.987 143.703 152.37 142.229 140.838L142.192 140.535C142.082 139.684 141.448 135.607 140.645 130.445C139.833 125.235 138.733 118.174 137.883 112.523L166.057 112.087C166.156 112.321 166.257 112.54 166.367 112.791C167.189 114.619 168.2 116.719 169.197 118.749C169.071 119.453 168.92 120.312 168.751 121.281C167.642 127.589 165.386 140.423 164.945 142.166C164.863 142.283 164.827 142.426 164.842 142.568C164.852 142.687 164.905 142.799 164.991 142.883C165.077 142.966 165.191 143.015 165.311 143.021C165.413 143.031 165.516 143.005 165.601 142.948C165.687 142.891 165.75 142.807 165.781 142.708C167.691 141.685 187.537 140.127 193.445 139.916C193.61 139.916 193.781 139.916 193.955 139.916L195.107 150.476C184.031 154.552 166.243 161.036 160.508 162.744C155.07 164.366 151.388 164.366 148.917 162.751ZM127.743 101.553L127.3 101.456L127.176 101.893C126.493 104.315 129.471 134.493 130.313 140.32L118.124 142.432C115.937 135.417 111.066 118.557 107.799 107.02L113.196 102.275C118.828 97.3192 125.885 91.1263 132.615 85.1447C133.688 91.8726 134.671 98.2579 135.408 103.125C130.937 102.257 127.8 101.567 127.743 101.553ZM103.233 109.766C102.491 110.428 102.01 110.866 101.846 111.033C101.762 111.047 101.675 111.036 101.597 111.003C101.139 110.864 99.9542 110.212 97.1382 107.375C95.7302 105.953 94.4138 104.479 93.7262 103.697L93.5103 103.451C93.8388 103.097 94.4302 102.461 95.2046 101.642C96.8754 99.8771 99.4028 97.2535 102.01 94.7144L102.505 94.245L103.014 93.7546L103.301 93.4824L103.737 93.0694L104.19 92.6446C104.91 91.9711 105.621 91.3234 106.302 90.725C110.385 87.1464 114.494 82.7229 118.591 77.8794C118.758 77.6799 118.927 77.4828 119.094 77.281L119.593 76.6849C122.808 72.8294 126.012 68.7344 129.184 64.6043L129.583 64.0857L129.977 63.5694C131.065 62.1614 132.146 60.7464 133.221 59.3243C134.561 57.5643 135.882 55.8364 137.182 54.1405L137.477 53.758L137.771 53.3779C139.179 51.5475 140.566 49.7734 141.922 48.0744C142.161 47.774 142.396 47.4768 142.626 47.1827C142.856 46.8885 143.103 46.5835 143.368 46.2674C144.386 45.0159 145.386 43.8175 146.367 42.6724L146.705 42.2781L147.045 41.8886L147.657 41.1846C147.891 41.0714 148.137 40.9841 148.389 40.9241C148.953 40.9663 149.797 41.3089 150.853 42.0974C152.811 43.5641 155.338 46.5303 156.568 50.4539C157.506 53.4835 157.976 58.1486 154.831 63.1752C154.176 64.2171 149.854 68.3026 143.978 73.6437L143.424 74.1459L142.854 74.6832C139.918 77.342 136.649 80.266 133.286 83.258C133.145 83.3847 133.005 83.5114 132.862 83.6358L132.434 84.0183C125.409 90.2628 118.066 96.7137 112.563 101.55L107.511 105.99L107.112 106.342L106.713 106.694C105.255 107.973 104.082 109.022 103.233 109.778V109.766ZM74.0729 90.6406C73.9015 89.8709 73.7256 88.9768 73.5636 88.071C73.1858 85.959 72.8878 83.7695 72.8948 83.0139C72.977 82.9881 73.0826 82.9623 73.2093 82.9341C74.9411 82.5446 80.7397 81.8922 86.3741 81.2563C96.8871 80.0829 109.97 78.5975 112.868 77.2434C117.409 75.1314 122.205 66.0334 126.061 58.7306C126.65 57.6159 127.208 56.5576 127.734 55.5837C127.723 56.3166 127.787 57.0488 127.927 57.7685C128.257 59.4933 128.602 61.3542 128.954 63.3113C125.352 68.0046 121.71 72.6721 118.061 76.9994C116.418 77.3631 114.795 77.755 113.225 78.1727C105.349 80.3035 102.92 86.4705 103.197 92.2363C102.669 92.7314 102.141 93.2383 101.611 93.7499C91.2293 93.8039 80.2563 93.1937 75.1828 92.8112L74.7018 92.776C74.5305 92.5015 74.3052 91.6919 74.0729 90.6406ZM130.862 50.3905C131.976 49.2882 133.365 48.5046 134.884 48.1213C135.044 48.0791 135.208 48.0392 135.37 48.004L135.696 47.9383L135.87 47.9054C138.294 47.4775 140.631 46.6538 142.788 45.4672C142.302 46.0633 141.812 46.6734 141.317 47.2906C141.082 47.5722 140.866 47.8538 140.641 48.1401L139.972 48.9849C139 50.2192 138.016 51.4849 137.017 52.7818L136.849 53C136.201 52.5988 136.048 52.3172 136.03 52.0966C136.024 52.022 136.029 51.947 136.044 51.8736C136.079 51.7457 136.084 51.6114 136.059 51.4811C136.034 51.3509 135.979 51.2282 135.898 51.1227C135.626 50.8036 135.124 50.7074 133.657 50.6956V51.6577C133.911 51.6577 134.126 51.6577 134.298 51.6718C134.565 51.6755 134.832 51.6999 135.096 51.7446C135.08 51.8549 135.072 51.9663 135.072 52.0778C135.073 52.3045 135.127 52.5278 135.229 52.7302C135.476 53.1616 135.835 53.5189 136.267 53.765C135.02 55.3866 133.756 57.0504 132.472 58.7306C131.571 59.9118 130.668 61.0945 129.764 62.2788C129.466 60.6361 129.173 59.0591 128.891 57.5854C128.567 56.0608 128.671 54.4763 129.191 53.0071C129.4 52.4495 129.675 51.9192 130.01 51.4278C130.121 51.2659 130.245 51.111 130.365 50.9584C130.51 50.766 130.677 50.5783 130.85 50.3999L130.862 50.3905ZM132.993 42.5832C132.859 42.3696 132.714 42.1373 132.542 41.9027C132.443 41.7637 132.336 41.6305 132.221 41.5037C132.099 41.364 131.966 41.2338 131.824 41.1142C131.367 40.7239 130.806 40.4745 130.21 40.3961C126.924 39.9268 124.242 38.0494 122.642 35.0504C121.767 33.4077 121.234 31.3309 120.661 29.1204C120.448 28.2873 120.227 27.4425 119.985 26.5977L120.133 26.6657L119.845 26.1096C119.701 25.6285 119.549 25.1521 119.375 24.6758C119.321 24.5256 119.267 24.3754 119.211 24.2229C119.155 24.0703 119.098 23.9201 119.04 23.77C118.981 23.6198 118.918 23.4532 118.852 23.3006C118.465 22.3728 118.276 21.3746 118.296 20.3696L118.211 20.2852C118.078 20.1467 117.951 20.0082 117.829 19.8721L117.7 19.729C117.6 19.6148 117.503 19.4998 117.411 19.384L117.237 19.1705C115.663 17.1453 115.273 15.2633 115.93 13.1771L116.848 13.4681C116.339 15.0849 116.573 16.5469 117.667 18.1286C117.693 18.1708 117.719 18.2107 117.747 18.2506C117.833 18.3703 117.927 18.4853 118.024 18.6143L118.054 18.6542C118.169 18.7997 118.289 18.9452 118.423 19.093C118.695 19.4059 118.998 19.7227 119.333 20.0435L119.361 20.0669C120.255 20.8132 121.433 21.7917 122.881 22.5028C123.099 22.6084 123.32 22.7093 123.55 22.8008L123.665 22.8501C123.869 22.9298 124.071 23.012 124.268 23.0847C134.406 27.3087 134.638 34.9377 134.737 38.2348C134.765 39.1735 134.783 39.7343 135.103 39.962C135.168 40.0091 135.242 40.0426 135.321 40.0605C135.423 40.0873 135.528 40.1007 135.633 40.1004C135.937 40.0871 136.237 40.0237 136.52 39.9127C137.149 39.6812 137.76 39.4035 138.348 39.082C138.932 38.7769 139.632 38.378 140.476 37.8758C140.844 37.6552 141.241 37.4119 141.666 37.146C142.11 36.869 142.584 36.5687 143.095 36.2378C143.989 38.148 144.973 40.0065 145.749 41.4756C145.789 41.5483 145.827 41.621 145.864 41.6961C144.353 43.733 140.69 46.0539 135.513 46.9926L135.368 47.0231C134.959 46.2721 134.553 45.5001 134.248 44.9111C133.72 43.9161 133.263 43.0431 132.981 42.5926L132.993 42.5832ZM154.582 35.8905C160.092 36.2636 167.189 46.0562 176.266 65.8105C173.45 61.9878 170.568 58.1862 167.728 54.7154C168.822 54.5089 168.784 53.9763 168.641 52.0567L167.681 52.1271C167.741 52.6607 167.758 53.1982 167.733 53.7345C167.679 53.7486 167.595 53.7627 167.522 53.7768C167.386 53.8002 167.226 53.8308 167.036 53.8777C162.439 48.3419 157.976 43.7518 154.111 41.4404L154.329 41.4216L154.77 41.5952C154.784 41.5553 154.855 41.3793 154.951 41.1259C155.347 40.1192 155.777 39.0139 155.864 38.7135L154.939 38.4507C154.857 38.737 154.315 40.1121 154.057 40.7739C153.942 41.0649 153.883 41.2104 153.855 41.2996C151.809 40.1262 149.936 39.61 148.307 39.9573H148.237C150.307 37.1694 152.226 35.8858 154.256 35.8858C154.355 35.8905 154.465 35.8928 154.578 35.8999L154.582 35.8905ZM195.102 89.6503L195.74 89.2865L195.942 89.5916C197.01 91.2202 198.432 93.3862 199.662 95.4419C199.814 95.6953 199.962 95.9464 200.108 96.1951C201.565 98.7014 201.985 99.8489 202.1 100.36C202.132 100.475 202.141 100.594 202.128 100.712L201.835 100.912C201.654 101.034 201.45 101.177 201.225 101.332L200.823 101.611L200.427 101.888L199.589 102.475C198.075 103.536 196.041 104.96 193.741 106.528L193.33 106.804L192.92 107.084L192.45 107.408L192.042 106.506C191.655 105.652 190.945 104.986 190.068 104.654C189.191 104.322 188.219 104.351 187.363 104.735V104.735C186.508 105.121 185.842 105.831 185.511 106.708C185.179 107.586 185.209 108.559 185.594 109.414L186.215 110.822L186.431 111.291L186.45 111.336L185.746 111.784C181.09 114.701 176.411 117.336 173.121 118.439C172.776 117.677 172.03 116.409 170.955 114.602L170.875 114.471C170.779 114.311 170.68 114.142 170.575 113.969L170.195 113.326C169.96 112.915 169.697 112.481 169.439 112.037L169.165 111.568C169.073 111.411 168.984 111.251 168.895 111.099C168.227 109.963 167.63 108.788 167.106 107.579C166.957 107.282 166.876 106.954 166.872 106.621L166.902 106.598C166.921 106.58 166.94 106.564 166.961 106.549L167.036 106.488L167.121 106.42L167.212 106.349L167.311 106.276L167.416 106.199L167.527 106.119L167.646 106.035L167.768 105.948L167.902 105.856L168.036 105.762L168.181 105.664L168.324 105.565L168.484 105.46L168.639 105.357L168.81 105.244L168.972 105.138L169.16 105.014L169.324 104.911L169.531 104.777L169.704 104.664L169.918 104.528L170.106 104.408L170.328 104.268L170.511 104.153L170.758 103.998L170.936 103.885L171.096 103.787L171.204 103.719L171.391 103.604L171.605 103.47L171.661 103.435C171.732 103.392 171.802 103.35 171.87 103.306L172.105 103.165L172.14 103.144L172.375 102.998L172.631 102.841L172.865 102.695L173.135 102.531L173.344 102.404L173.661 102.212L173.853 102.095L174.186 101.893L174.421 101.752L174.726 101.569L174.961 101.431L175.292 101.231L175.472 101.121L175.848 100.886L176.057 100.762L176.42 100.544L176.594 100.44L177 100.206L177.164 100.107L177.582 99.8583L177.772 99.748L178.162 99.5133L178.396 99.3725L178.758 99.1566L178.959 99.0369L179.354 98.8023L179.565 98.6779L179.957 98.4432L180.191 98.3118L180.558 98.0959L180.809 97.9481L181.177 97.7322L181.318 97.6501L181.787 97.3802L181.982 97.2676L182.393 97.0329L182.524 96.9554C184.401 95.8595 186.241 94.7871 187.94 93.8039L188.365 93.5575L188.785 93.3228C190.876 92.1143 192.699 91.0653 194.011 90.3144L194.297 90.1501L194.713 89.9154L194.966 89.77L195.102 89.6503ZM204.801 108.611L204.231 109.001L203.787 109.308L202.304 110.346C197.723 113.556 188.421 120.07 181.201 123.886C179.477 124.831 177.682 125.641 175.834 126.31C175.465 125.435 174.599 123.682 173.271 121.002C173.055 120.572 172.825 120.108 172.584 119.617L172.966 119.5C176.54 118.409 181.745 115.464 186.863 112.225C187.271 112.927 187.91 113.466 188.67 113.751C189.104 113.916 189.566 113.994 190.03 113.981C190.494 113.967 190.95 113.862 191.373 113.671C191.797 113.48 192.179 113.207 192.497 112.868C192.815 112.529 193.062 112.13 193.225 111.695V111.671C193.283 111.514 193.33 111.352 193.366 111.188C193.4 111.029 193.425 110.867 193.438 110.705C193.484 110.117 193.381 109.528 193.138 108.992L192.831 108.311L193.253 108.027L193.664 107.75L194.074 107.471C196.395 105.889 198.486 104.42 200.131 103.273L200.835 102.785L201.232 102.508L201.633 102.226L202.241 101.806C203.768 105.115 204.883 107.9 204.796 108.621L204.801 108.611ZM174.346 127.117C173.98 126.242 173.114 124.489 171.783 121.809C171.314 120.87 170.772 119.772 170.199 118.606C170.08 118.371 169.965 118.12 169.84 117.871C169.716 117.623 169.606 117.383 169.481 117.137C168.648 115.419 167.806 113.645 167.104 112.077C167.031 111.915 166.959 111.756 166.891 111.608C166.823 111.46 166.75 111.287 166.682 111.139C165.889 109.308 165.365 107.891 165.41 107.412C165.546 107.296 165.722 107.16 165.938 107.004C166.007 107.347 166.11 107.683 166.245 108.006C166.48 108.731 166.865 109.724 167.466 111.099L167.677 111.568L167.855 111.967L167.89 112.047C168.435 113.255 169.064 114.579 169.709 115.921C169.824 116.156 169.944 116.402 170.059 116.642C170.174 116.881 170.293 117.13 170.415 117.374C171.1 118.782 171.786 120.159 172.408 121.412C173.656 123.923 174.754 126.106 175.024 126.857C174.792 126.962 174.567 127.044 174.346 127.117ZM117.026 78.229C113.234 82.6619 109.432 86.6982 105.666 90.0023C105.171 90.4364 104.659 90.8964 104.143 91.3727C104.159 86.2476 106.551 80.9911 113.476 79.1184C114.635 78.804 115.818 78.5075 117.026 78.229ZM136.487 103.829C136.464 103.662 136.438 103.493 136.412 103.322L136.328 102.775C136.297 102.559 136.264 102.343 136.229 102.125C135.485 97.223 134.518 90.9527 133.467 84.3867L134.72 83.2744C134.883 83.58 135.063 83.8762 135.26 84.1614C135.652 84.7575 136.098 85.4357 136.098 85.9895H137.06C137.06 85.147 136.529 84.3468 136.062 83.6428C135.831 83.3202 135.635 82.9731 135.478 82.6079C138.641 79.7919 141.671 77.0674 144.381 74.6058L144.952 74.0848L145.498 73.5897C148.026 71.2829 150.229 69.2366 151.94 67.5963L154.416 73.3926L154.615 73.8619L154.826 74.357L156.047 77.2129L156.26 77.7175L156.476 78.2197L159.475 85.2432L159.71 85.8111L159.944 86.3767L167.738 104.631C166.679 105.273 165.66 105.978 164.687 106.743C164.323 107.067 164.154 107.652 165.626 111.146L161.46 111.211C161.676 110.507 162.002 109.487 162.056 109.358L161.618 109.158L161.247 108.851C161.129 108.994 160.663 110.512 160.447 111.228L137.721 111.58H137.639C137.496 110.604 137.109 107.989 136.558 104.338L136.487 103.829ZM189.714 105.565C190.031 105.683 190.321 105.863 190.567 106.094C190.814 106.324 191.012 106.602 191.15 106.91L191.62 107.961L191.822 108.41L192.023 108.858L192.258 109.386C192.445 109.804 192.517 110.265 192.467 110.721C192.449 110.885 192.414 111.047 192.364 111.204C192.35 111.255 192.334 111.306 192.314 111.355C192.272 111.47 192.22 111.581 192.159 111.688C191.938 112.081 191.618 112.409 191.23 112.64C190.843 112.871 190.401 112.996 189.95 113.003C189.499 113.011 189.054 112.899 188.66 112.681C188.265 112.462 187.934 112.144 187.701 111.758L187.673 111.709C187.635 111.641 187.6 111.575 187.569 111.505L187.468 111.27V111.258L187.267 110.81V110.791L186.466 109.017C186.188 108.395 186.167 107.687 186.408 107.049C186.65 106.411 187.134 105.894 187.755 105.612V105.612C188.062 105.476 188.394 105.402 188.73 105.394C189.066 105.385 189.401 105.444 189.714 105.565V105.565ZM171.645 117.707C171.927 118.173 172.168 118.663 172.365 119.171C172.135 118.702 171.901 118.212 171.643 117.707H171.645ZM181.82 78.574C181.578 78.5455 181.332 78.5914 181.116 78.7054C180.647 78.9565 180.522 79.4611 180.412 79.8788C180.316 80.2331 180.241 80.4701 180.098 80.5217L180.412 81.4299C181.05 81.2093 181.217 80.5851 181.351 80.1275C181.412 79.8928 181.489 79.6136 181.585 79.5596C181.731 79.5259 181.883 79.5407 182.02 79.6019L182.12 79.2757C183.866 83.484 185.678 88.0107 187.555 92.8558C184.833 94.3952 181.599 96.2726 178.42 98.1499L178.378 98.042C178.042 97.1713 177.908 96.8287 178.558 96.0895L178.605 96.0684V96.0473L178.633 96.0144L178.561 95.9464L178.227 95.1884L177.993 95.2893L177.925 95.3644C176.798 96.5964 177.117 97.4271 177.488 98.3893C177.521 98.4737 177.554 98.5582 177.587 98.6474C175.679 99.7738 173.809 100.891 172.105 101.933L171.617 102.228L171.112 102.536C170.202 103.092 169.352 103.618 168.585 104.101L160.55 85.2831L160.315 84.7176L160.081 84.1497L157.18 77.3444L156.964 76.8422L156.751 76.34L155.901 74.35L155.69 73.8525L155.488 73.3832L152.681 66.8712C154.284 65.3107 155.338 64.1983 155.652 63.7008C159.001 58.3645 158.501 53.4037 157.492 50.1793C156.194 46.0375 153.503 42.9047 151.438 41.3418C151.346 41.2714 151.255 41.2057 151.163 41.1423C154.111 42.081 157.969 45.1692 162.681 50.3577C163.8 51.585 164.931 52.8921 166.069 54.2532C165.971 54.3024 165.87 54.3564 165.764 54.4174C164.926 54.8868 165.128 55.7691 165.248 56.2948C165.297 56.4537 165.322 56.6189 165.323 56.7852C165.328 56.7742 165.334 56.7639 165.342 56.7547L166.083 57.3672C166.398 56.9894 166.285 56.506 166.187 56.0789C166.048 55.4734 166.076 55.3491 166.238 55.2552C166.4 55.1613 166.562 55.0839 166.708 55.0205C170.568 59.7021 174.482 64.9821 178.185 70.0861C179.358 72.7441 180.569 75.5734 181.818 78.574H181.82ZM181.28 74.3711C186.966 82.2559 190.754 87.4421 193.147 89.6245C192.131 90.2041 190.446 91.1686 188.386 92.356C185.726 85.5162 183.205 79.3085 180.82 73.7328L181.28 74.3711ZM54.443 89.0472L54.5697 89.0706C54.7621 89.1012 54.9663 89.127 55.1751 89.1457C55.3206 89.1457 55.4661 89.1645 55.6116 89.1645C55.8222 89.1657 56.0325 89.15 56.2405 89.1176C56.5972 89.0566 57.1792 89.012 57.8011 88.965C58.4229 88.9181 59.0049 88.8735 59.486 88.8078C59.7206 88.7773 59.9929 88.7374 60.2862 88.6952L60.4012 88.6788C60.7062 88.6342 61.0301 88.5872 61.3539 88.545C62.0039 88.4558 62.6422 88.376 63.0928 88.3455H63.1092C64.2966 88.369 65.2048 88.6436 65.477 89.066C65.5336 89.1602 65.5673 89.2664 65.5754 89.376C65.5836 89.4856 65.5659 89.5956 65.5239 89.6972C65.068 89.827 64.6028 89.922 64.1324 89.9812C63.5835 90.0502 63.0417 90.1672 62.5132 90.3308C62.4052 90.366 62.1635 90.4247 61.6801 90.5185C61.4454 90.5678 61.1216 90.6241 60.7414 90.6945C59.8896 90.8471 58.6623 91.0512 56.9046 91.3328L56.67 91.3727L56.4963 91.3375C56.2537 91.2857 56.0176 91.207 55.7923 91.1029C54.7645 90.6218 54.5674 89.7488 54.443 89.0472ZM57.2097 92.2598C58.8524 91.9969 60.1243 91.7904 61.0418 91.6191C61.4267 91.5511 61.7458 91.4901 62.011 91.4361C62.2815 91.3864 62.5494 91.3229 62.8136 91.246C63.2908 91.0999 63.78 90.9963 64.2755 90.9363C64.7293 90.8751 65.179 90.7874 65.6225 90.6734C65.6749 90.9668 65.6749 91.2671 65.6225 91.5605C65.6108 91.6379 65.6037 91.7107 65.599 91.7764C65.5943 91.8421 65.599 91.8913 65.599 91.9007C65.4489 92.1002 64.1699 92.4592 62.9379 92.7737C62.5695 92.8676 62.2058 92.9567 61.8772 93.0365L61.4079 93.1515C61.0864 93.2289 60.7907 93.3134 60.5044 93.3862C59.3311 93.7194 58.5942 93.9282 57.6884 93.2735C57.6227 93.2242 57.5547 93.1726 57.4866 93.1163C57.3956 93.0417 57.3234 92.9467 57.2757 92.8392C57.2281 92.7316 57.2062 92.6143 57.212 92.4968C57.2003 92.4287 57.205 92.3466 57.2097 92.2598V92.2598ZM50.578 78.7054C50.3434 78.8392 49.9397 78.6022 49.7051 78.1751C49.4704 77.748 49.4704 77.2927 49.7285 77.1566C49.9867 77.0205 50.3645 77.2575 50.5991 77.6846C50.8338 78.1117 50.8127 78.5693 50.578 78.7054ZM52.7205 85.9613C52.7756 85.7722 52.8544 85.5908 52.9552 85.4216C53.0474 85.2657 53.1621 85.1241 53.2955 85.0015C53.6874 85.4075 53.8962 85.6515 54.0323 85.8088C54.2787 86.0974 54.4148 86.2359 54.8138 86.2077C54.8989 86.2023 54.9844 86.2023 55.0695 86.2077C56.829 86.2591 58.5897 86.172 60.3355 85.9472L60.5514 85.9191C60.7987 85.8846 61.0479 85.8642 61.2976 85.8581C62.4709 85.8299 63.3087 86.1256 63.426 86.2945C63.6302 86.6301 63.5316 86.8366 62.9309 87.3529L62.8839 87.3951C62.4428 87.4303 61.8819 87.4984 61.307 87.5758L60.3472 87.7119L60.1501 87.7401L59.3546 87.8527C58.904 87.9137 58.3056 87.9607 57.7283 88.0029C57.0877 88.0522 56.4822 88.0968 56.0857 88.1648C55.5725 88.2245 55.0531 88.1983 54.5486 88.0874C54.2998 88.0381 54.0793 87.9841 53.9033 87.9396C53.8551 87.9188 53.8047 87.9039 53.7531 87.895C53.7108 87.895 53.6733 87.8762 53.6334 87.8668L53.5043 87.8363C53.4002 87.8052 53.3002 87.7619 53.2063 87.7072C53.0465 87.6167 52.9111 87.4886 52.8117 87.3341C52.7124 87.1795 52.6521 87.0032 52.636 86.8202C52.636 86.7967 52.636 86.7709 52.636 86.7474C52.6103 86.483 52.6358 86.2161 52.7111 85.9613H52.7205ZM70.8321 93.3181L70.7875 93.243C68.8586 90.0609 67.1267 87.1088 65.7352 84.734C65.0077 83.495 64.353 82.3873 63.778 81.4111C64.3459 80.8573 64.7589 80.3434 64.7965 79.8271C64.8176 79.5268 64.8528 79.2405 64.888 78.9636C65.0218 77.8442 65.1508 76.7882 64.4187 75.1713C63.8813 73.9675 64.13 73.179 64.4327 72.7308C64.6142 72.4443 64.8858 72.2264 65.2048 72.1113C66.2162 73.2846 66.6128 74.7396 67.1807 76.8985C67.2652 77.2082 67.352 77.5344 67.4459 77.8747C68.3845 81.3032 70.0272 82.0471 71.2287 82.5915C71.4797 82.6976 71.7228 82.8215 71.9562 82.9623C71.9702 84.6214 72.9277 90.8518 73.7185 92.9051C72.8268 93.0459 71.8318 93.189 70.8227 93.3181H70.8321ZM81.4038 113.8C81.662 113.582 82.833 113.394 83.8444 113.281C83.375 113.772 82.9362 114.33 82.4739 114.905C82.2533 115.18 82.0281 115.461 81.7934 115.745L81.5587 115.656C81.2099 115.53 80.8683 115.385 80.5356 115.222C80.8336 114.797 81.1035 114.321 81.3757 113.837L81.4038 113.8ZM77.4638 118.873L77.4919 118.772C77.526 118.65 77.5534 118.525 77.5741 118.399C77.6951 118.439 77.803 118.512 77.8862 118.608C77.9978 118.754 78.1449 118.868 78.3133 118.941L78.0786 119.082C77.7477 119.275 77.4732 119.425 77.2456 119.552C77.33 119.319 77.391 119.092 77.4544 118.873H77.4638ZM95.0638 121.778C93.4798 123.421 91.4687 124.67 90.5746 124.541C90.508 124.537 90.4436 124.516 90.3879 124.479C90.3322 124.442 90.2873 124.391 90.2578 124.332C90.1968 124.208 90.1006 124.104 89.9812 124.035C89.8619 123.965 89.7247 123.932 89.5867 123.94C89.2585 123.966 88.9368 124.045 88.6339 124.174C88.2209 124.322 87.6554 124.522 87.3949 124.376C87.2358 124.239 87.1358 124.046 87.1156 123.837C87.0998 123.761 87.0679 123.689 87.0222 123.626C86.9765 123.563 86.9179 123.511 86.8505 123.473C86.5876 123.327 86.3248 123.424 85.9306 123.571C85.3416 123.79 84.4498 124.12 83.8326 123.618C83.4243 123.287 83.3633 122.849 83.3915 122.403C83.5323 122.321 83.7857 122.201 83.9993 122.098C84.7902 121.759 85.5328 121.317 86.2075 120.784L86.2779 120.751L85.8789 119.875L85.6748 119.967L85.6208 120.018C85.0412 120.537 84.2128 120.938 83.5862 121.229C83.4407 121.297 83.3164 121.358 83.2037 121.415C83.1231 121.362 83.0294 121.333 82.9332 121.331C82.837 121.329 82.7421 121.354 82.6593 121.403C79.9865 122.907 77.5131 123.792 76.3562 123.656C75.8617 123.613 75.387 123.442 74.9785 123.16C74.5699 122.878 74.2417 122.495 74.0259 122.048C73.634 121.248 73.6152 120.309 73.979 119.702C74.3427 119.094 74.6009 118.648 74.7933 118.294C75.4056 118.237 76.0209 118.22 76.6354 118.242C76.6215 118.332 76.6019 118.422 76.5767 118.51L76.5486 118.613C76.4101 119.082 76.2693 119.577 75.9666 119.868C75.4973 120.312 75.7085 120.659 75.7812 120.755C76.084 121.157 76.5533 121.091 78.5738 119.92C79.4325 119.418 80.2268 118.814 80.9392 118.12C81.1737 117.949 81.3906 117.754 81.5869 117.54C81.6784 117.435 81.7605 117.341 81.8333 117.261C82 117.082 82.1428 116.881 82.258 116.665C82.5913 116.273 82.9034 115.884 83.1967 115.508C83.9993 114.506 84.6939 113.631 85.4659 113.089L85.7334 112.899L85.5739 112.263L85.25 112.221C85.2125 112.221 81.1011 112.328 80.5567 113.302L80.5192 113.363C80.2384 113.887 79.9249 114.393 79.5805 114.877C78.961 114.713 78.21 114.527 77.4826 114.391C77.8158 113.176 78.2335 111.735 78.3367 111.512C79.7799 108.522 80.1789 108.226 83.6918 107.691C85.8487 107.356 87.9764 106.855 90.056 106.192L90.2203 106.14C90.9947 105.906 91.9075 105.244 92.9823 104.338C94.625 106.244 98.849 110.909 101.099 111.847C99.154 115.173 95.4745 121.307 95.0544 121.778H95.0638Z" fill="white"/>
</svg>
